<?xml version="1.0" encoding="UTF-8"?>
<svg version="1.1" xmlns="http://www.w3.org/2000/svg" width="612" height="408">
<path d="M0 0 C201.96 0 403.92 0 612 0 C612 134.64 612 269.28 612 408 C410.04 408 208.08 408 0 408 C0 273.36 0 138.72 0 0 Z " fill="#FEFEFE" transform="translate(0,0)"/>
<path d="M0 0 C2.74601585 2.19370104 5.32348065 4.48254449 7.8828125 6.890625 C8.72199219 7.63957031 9.56117188 8.38851562 10.42578125 9.16015625 C18.28841437 16.51080396 30.44277464 29.96994347 31.0703125 41.265625 C31.0084375 42.131875 30.9465625 42.998125 30.8828125 43.890625 C25.50809908 39.98174251 21.44407209 35.02724 17.265625 29.91015625 C6.78037107 17.34290214 -7.61161703 7.08353591 -24.1171875 4.890625 C-38.14845869 3.63876437 -50.12871861 5.77028412 -62.09375 13.62109375 C-64.1171875 14.890625 -64.1171875 14.890625 -67.1171875 15.890625 C-71.14558693 20.75217067 -74.53973125 26.12925221 -77.1171875 31.890625 C-76.09496094 31.40078125 -75.07273438 30.9109375 -74.01953125 30.40625 C-67.74751996 28.06028318 -61.28377648 28.53383832 -54.6796875 28.640625 C-53.40802734 28.64578125 -52.13636719 28.6509375 -50.82617188 28.65625 C-40.70422379 28.74020602 -31.62582731 29.28735097 -22.1171875 32.890625 C-21.08464844 33.25671875 -20.05210937 33.6228125 -18.98828125 34 C-4.93109926 39.24636869 8.93847514 46.41209905 21.11352539 55.20092773 C22.93726939 56.13820302 22.93726939 56.13820302 24.99975586 55.09960938 C26.96078817 53.84056205 28.64767442 52.5094221 30.3828125 50.953125 C31.08664063 50.32921875 31.79046875 49.7053125 32.515625 49.0625 C34.17976938 47.53566126 35.81840642 45.98078137 37.4375 44.40625 C50.1313335 32.2398611 64.85379413 23.03753994 80.8828125 15.890625 C81.84832031 15.436875 82.81382812 14.983125 83.80859375 14.515625 C95.25074991 9.85460523 110.16480494 10.27002976 121.8828125 13.890625 C136.53870089 20.16148189 145.6780603 28.04537076 151.8828125 42.890625 C155.5988085 54.27681786 152.44977784 66.33771554 147.8828125 76.890625 C139.93120067 92.44812641 127.71979708 101.64946859 111.4453125 107.640625 C90.50631766 114.00517559 68.33341599 111.45383838 48.8828125 101.890625 C46.65122558 100.46057325 44.61865865 98.95970142 42.57421875 97.27734375 C37.72156199 93.29883763 33.10620398 91.39865696 26.8828125 90.890625 C26.5528125 91.880625 26.2228125 92.870625 25.8828125 93.890625 C24.21557617 94.99389648 24.21557617 94.99389648 22.05078125 96.01171875 C21.25784668 96.388125 20.46491211 96.76453125 19.64794922 97.15234375 C18.7973291 97.54035156 17.94670898 97.92835938 17.0703125 98.328125 C16.20680176 98.72773438 15.34329102 99.12734375 14.45361328 99.5390625 C5.19467776 103.75946277 -3.85029217 107.5023158 -14.1171875 107.890625 C-15.28894531 107.95378906 -16.46070313 108.01695312 -17.66796875 108.08203125 C-32.81047219 108.65727719 -45.68364532 104.83071584 -59.1171875 97.890625 C-60.16648438 97.36984375 -61.21578125 96.8490625 -62.296875 96.3125 C-70.17348632 92.26167132 -70.17348632 92.26167132 -72.1171875 87.890625 C-72.8184375 87.6225 -73.5196875 87.354375 -74.2421875 87.078125 C-82.50742788 83.66422136 -87.42850878 76.14609865 -92.1171875 68.890625 C-92.61605469 68.17390625 -93.11492187 67.4571875 -93.62890625 66.71875 C-96.56105518 62.3835384 -97.78985217 59.12799027 -98.1171875 53.890625 C-107.4769833 58.47501478 -112.5157307 65.73012114 -117.1171875 74.890625 C-117.7771875 74.890625 -118.4371875 74.890625 -119.1171875 74.890625 C-120.15300552 68.38798968 -119.17324777 64.23206199 -115.5546875 58.703125 C-111.38170612 52.95417724 -107.04612273 47.84324849 -101.1171875 43.890625 C-100.71772703 41.40445412 -100.71772703 41.40445412 -100.7421875 38.515625 C-100.01970454 26.90032204 -94.3262211 16.0996586 -86.1171875 7.890625 C-85.1271875 7.890625 -84.1371875 7.890625 -83.1171875 7.890625 C-82.9521875 7.189375 -82.7871875 6.488125 -82.6171875 5.765625 C-78.73358139 -1.67795338 -69.54673677 -5.50966231 -61.98046875 -8.2421875 C-41.28935749 -14.63965541 -18.08508443 -12.23802706 0 0 Z " fill="#5273A9" transform="translate(185.1171875,107.109375)"/>
<path d="M0 0 C2.74601585 2.19370104 5.32348065 4.48254449 7.8828125 6.890625 C8.72199219 7.63957031 9.56117188 8.38851562 10.42578125 9.16015625 C18.28841437 16.51080396 30.44277464 29.96994347 31.0703125 41.265625 C31.0084375 42.131875 30.9465625 42.998125 30.8828125 43.890625 C25.50809908 39.98174251 21.44407209 35.02724 17.265625 29.91015625 C6.78037107 17.34290214 -7.61161703 7.08353591 -24.1171875 4.890625 C-38.14845869 3.63876437 -50.12871861 5.77028412 -62.09375 13.62109375 C-64.1171875 14.890625 -64.1171875 14.890625 -67.1171875 15.890625 C-71.14558693 20.75217067 -74.53973125 26.12925221 -77.1171875 31.890625 C-76.09496094 31.40078125 -75.07273438 30.9109375 -74.01953125 30.40625 C-67.74751996 28.06028318 -61.28377648 28.53383832 -54.6796875 28.640625 C-53.40802734 28.64578125 -52.13636719 28.6509375 -50.82617188 28.65625 C-44.182814 28.71135302 -37.70160848 29.00219388 -31.1171875 29.890625 C-31.1171875 30.880625 -31.1171875 31.870625 -31.1171875 32.890625 C-36.8671875 33.015625 -36.8671875 33.015625 -39.1171875 31.890625 C-39.2615625 33.004375 -39.4059375 34.118125 -39.5546875 35.265625 C-40.1171875 38.890625 -40.1171875 38.890625 -41.1171875 40.890625 C-39.6321875 41.385625 -39.6321875 41.385625 -38.1171875 41.890625 C-37.7871875 42.880625 -37.4571875 43.870625 -37.1171875 44.890625 C-34.79334937 46.00097064 -32.51005335 46.95516086 -30.1171875 47.890625 C-19.72231393 52.41856947 -9.92838369 57.21167055 -0.78125 63.9453125 C1.70127795 65.75806751 4.22338947 67.35299496 6.8828125 68.890625 C6.5734375 69.633125 6.2640625 70.375625 5.9453125 71.140625 C4.8447901 73.73310364 4.8447901 73.73310364 4.5078125 75.953125 C3.56331354 78.88107177 2.32574926 79.99734901 -0.1171875 81.890625 C-6.37150872 84.68796469 -12.20847216 85.34461617 -18.9921875 85.203125 C-20.29784668 85.19055664 -20.29784668 85.19055664 -21.62988281 85.17773438 C-27.97434611 85.05949987 -33.92753779 84.34701317 -40.1171875 82.890625 C-39.1271875 86.520625 -38.1371875 90.150625 -37.1171875 93.890625 C-35.7971875 93.890625 -34.4771875 93.890625 -33.1171875 93.890625 C-32.4571875 95.540625 -31.7971875 97.190625 -31.1171875 98.890625 C-33.41796875 99.13671875 -33.41796875 99.13671875 -36.1171875 98.890625 C-37.84765625 97.17578125 -37.84765625 97.17578125 -39.3046875 94.953125 C-41.22881694 91.88478287 -41.22881694 91.88478287 -44.1171875 89.890625 C-45.2421875 87.828125 -45.2421875 87.828125 -46.1171875 85.890625 C-47.1071875 88.200625 -48.0971875 90.510625 -49.1171875 92.890625 C-50.02082031 92.95121094 -50.92445313 93.01179688 -51.85546875 93.07421875 C-53.03496094 93.15800781 -54.21445313 93.24179688 -55.4296875 93.328125 C-56.60144531 93.40933594 -57.77320313 93.49054688 -58.98046875 93.57421875 C-62.14309708 93.7773621 -62.14309708 93.7773621 -65.1171875 94.890625 C-66.94140625 93.96484375 -66.94140625 93.96484375 -68.8046875 92.578125 C-69.42730469 92.12824219 -70.04992187 91.67835938 -70.69140625 91.21484375 C-71.16191406 90.77785156 -71.63242188 90.34085937 -72.1171875 89.890625 C-72.1171875 89.230625 -72.1171875 88.570625 -72.1171875 87.890625 C-72.7771875 87.705 -73.4371875 87.519375 -74.1171875 87.328125 C-82.35131814 83.38260407 -87.28033861 76.37538386 -92.1171875 68.890625 C-92.61605469 68.17390625 -93.11492187 67.4571875 -93.62890625 66.71875 C-96.56105518 62.3835384 -97.78985217 59.12799027 -98.1171875 53.890625 C-107.4769833 58.47501478 -112.5157307 65.73012114 -117.1171875 74.890625 C-117.7771875 74.890625 -118.4371875 74.890625 -119.1171875 74.890625 C-120.15300552 68.38798968 -119.17324777 64.23206199 -115.5546875 58.703125 C-111.38170612 52.95417724 -107.04612273 47.84324849 -101.1171875 43.890625 C-100.71772703 41.40445412 -100.71772703 41.40445412 -100.7421875 38.515625 C-100.01970454 26.90032204 -94.3262211 16.0996586 -86.1171875 7.890625 C-85.1271875 7.890625 -84.1371875 7.890625 -83.1171875 7.890625 C-82.9521875 7.189375 -82.7871875 6.488125 -82.6171875 5.765625 C-78.73358139 -1.67795338 -69.54673677 -5.50966231 -61.98046875 -8.2421875 C-41.28935749 -14.63965541 -18.08508443 -12.23802706 0 0 Z " fill="#50A7BC" transform="translate(185.1171875,107.109375)"/>
<path d="M0 0 C2.96451034 4.09799959 2.84628536 7.03586186 2.125 11.9375 C0.68000402 18.37694518 -1.245295 26.91628214 -6.875 30.9375 C-9.18488315 31.68136068 -11.51815944 32.35940703 -13.875 32.9375 C-13.875 33.5975 -13.875 34.2575 -13.875 34.9375 C-17.20833333 36.27083333 -20.54166667 37.60416667 -23.875 38.9375 C-24.6484375 39.30746094 -25.421875 39.67742187 -26.21875 40.05859375 C-29.72146951 41.21758182 -33.04278044 41.19482058 -36.6875 41.125 C-37.40236572 41.1156543 -38.11723145 41.10630859 -38.85375977 41.09667969 C-47.61414947 40.94065494 -53.98295265 39.75021206 -61.875 35.9375 C-63.51848945 35.20306565 -65.16427337 34.47374054 -66.8125 33.75 C-68.85581974 32.84546163 -70.87630444 31.93684778 -72.875 30.9375 C-72.5403922 28.01788293 -71.92551568 26.98706792 -69.79296875 24.89453125 C-68.89191406 24.18683594 -67.99085938 23.47914063 -67.0625 22.75 C-66.07894531 21.97140625 -65.09539062 21.1928125 -64.08203125 20.390625 C-59.84056295 17.12331773 -55.53764102 13.93842218 -51.2109375 10.78515625 C-48.80469575 9.15028581 -48.80469575 9.15028581 -47.875 6.9375 C-46.33671537 6.27409665 -44.76806057 5.68020438 -43.1875 5.125 C-39.87409103 3.87013448 -37.3358509 2.74076442 -34.75 0.3125 C-26.07655073 -6.85252331 -8.94007254 -6.4135303 0 0 Z " fill="#FDFDFE" transform="translate(306.875,152.0625)"/>
<path d="M0 0 C1.6396875 0.90492188 1.6396875 0.90492188 3.3125 1.828125 C9.12006067 5.11710068 14.62783688 8.71199879 20.0390625 12.6171875 C21.94687524 14.03592842 21.94687524 14.03592842 24 15 C24 17 24 17 22.25 18.875 C11.25985736 26.06086249 -1.31857927 26.24277495 -14 26 C-14.8353125 26.02964844 -15.670625 26.05929688 -16.53125 26.08984375 C-25.54005629 25.98186148 -33.42758712 20.40146499 -41 16 C-41.94488281 15.45214844 -42.88976562 14.90429688 -43.86328125 14.33984375 C-51.57948316 9.50134785 -57.4721592 0.30080187 -61 -8 C-61 -8.66 -61 -9.32 -61 -10 C-39.75279824 -16.02244948 -18.71924481 -10.5954167 0 0 Z " fill="#FDFDFE" transform="translate(168,161)"/>
<path d="M0 0 C2.74601585 2.19370104 5.32348065 4.48254449 7.8828125 6.890625 C8.72199219 7.63957031 9.56117188 8.38851562 10.42578125 9.16015625 C18.28841437 16.51080396 30.44277464 29.96994347 31.0703125 41.265625 C30.9775 42.565 30.9775 42.565 30.8828125 43.890625 C25.50809908 39.98174251 21.44407209 35.02724 17.265625 29.91015625 C6.78037107 17.34290214 -7.61161703 7.08353591 -24.1171875 4.890625 C-38.14845869 3.63876437 -50.12871861 5.77028412 -62.09375 13.62109375 C-64.1171875 14.890625 -64.1171875 14.890625 -67.1171875 15.890625 C-69.01766001 18.20671466 -69.01766001 18.20671466 -70.8046875 20.953125 C-71.42730469 21.87222656 -72.04992187 22.79132813 -72.69140625 23.73828125 C-73.16191406 24.44855469 -73.63242188 25.15882813 -74.1171875 25.890625 C-74.4471875 24.570625 -74.7771875 23.250625 -75.1171875 21.890625 C-76.4371875 21.560625 -77.7571875 21.230625 -79.1171875 20.890625 C-79.1171875 18.250625 -79.1171875 15.610625 -79.1171875 12.890625 C-81.49093611 12.55636765 -81.49093611 12.55636765 -84.1171875 12.890625 C-85.96034421 14.7910717 -85.96034421 14.7910717 -87.1171875 16.890625 C-88.7671875 16.560625 -90.4171875 16.230625 -92.1171875 15.890625 C-88.3671875 10.140625 -88.3671875 10.140625 -86.1171875 7.890625 C-85.1271875 7.890625 -84.1371875 7.890625 -83.1171875 7.890625 C-82.9521875 7.189375 -82.7871875 6.488125 -82.6171875 5.765625 C-78.73358139 -1.67795338 -69.54673677 -5.50966231 -61.98046875 -8.2421875 C-41.28935749 -14.63965541 -18.08508443 -12.23802706 0 0 Z " fill="#5AC4C7" transform="translate(185.1171875,107.109375)"/>
<path d="M0 0 C18.48554922 -1.98947615 32.86144384 7.17660736 48.5625 15.8125 C49.16743286 16.14428253 49.77236572 16.47606506 50.39562988 16.81790161 C52.12443389 17.77155708 53.84558815 18.73903998 55.56640625 19.70703125 C56.56615479 20.2688208 57.56590332 20.83061035 58.59594727 21.40942383 C61 23 61 23 63 26 C60.375 30.875 60.375 30.875 57 32 C56.67 32.99 56.34 33.98 56 35 C54.0625 36.875 54.0625 36.875 51 38 C43.60674349 37.52990855 37.88353007 33.07583776 32.03955078 28.98339844 C23.70261643 23.24170812 14.49348991 19.30178763 5.1875 15.40234375 C2 14 2 14 -1 12 C-0.34 12 0.32 12 1 12 C1 11.34 1 10.68 1 10 C-0.32 9.67 -1.64 9.34 -3 9 C-2.01 6.03 -1.02 3.06 0 0 Z " fill="#54679E" transform="translate(146,139)"/>
<path d="M0 0 C1.67542976 0.28604898 3.34385343 0.61781233 5 1 C5 3.64 5 6.28 5 9 C6.32 9.33 7.64 9.66 9 10 C9.17942163 13.94727588 9.09350689 16.5980513 7 20 C8.02222656 19.51015625 9.04445313 19.0203125 10.09765625 18.515625 C16.36966754 16.16965818 22.83341102 16.64321332 29.4375 16.75 C30.70916016 16.75515625 31.98082031 16.7603125 33.29101562 16.765625 C39.9343735 16.82072802 46.41557902 17.11156888 53 18 C53 18.99 53 19.98 53 21 C47.25 21.125 47.25 21.125 45 20 C44.855625 21.11375 44.71125 22.2275 44.5625 23.375 C44 27 44 27 43 29 C43.99 29.33 44.98 29.66 46 30 C46 30.66 46 31.32 46 32 C42.72305375 33.09231542 41.94295048 32.89874513 38.7265625 32.0703125 C31.95450069 30.6056172 25.27366843 30.78263884 18.375 30.875 C17.08464844 30.88402344 15.79429688 30.89304688 14.46484375 30.90234375 C11.30969751 30.9257152 8.15495074 30.95847909 5 31 C5 30.34 5 29.68 5 29 C7.90600261 27.74335022 9.79604584 27 13 27 C13 25.68 13 24.36 13 23 C3.93153068 22.6761261 -2.0811583 23.69461517 -9.140625 29.66015625 C-11.11066348 31.0797428 -12.62884437 31.57508052 -15 32 C-15.759693 21.7019394 -15.35485801 13.6896112 -9 5 C-6 4 -6 4 -3 5 C-2.690625 4.360625 -2.38125 3.72125 -2.0625 3.0625 C-1 1 -1 1 0 0 Z " fill="#598EAF" transform="translate(101,119)"/>
<path d="M0 0 C8 0 8 0 10.1875 1.5 C12.64602266 4.89106574 14.86619331 8.39701494 17 12 C17.09087891 10.82630859 17.09087891 10.82630859 17.18359375 9.62890625 C17.26738281 8.61699219 17.35117187 7.60507813 17.4375 6.5625 C17.51871094 5.55316406 17.59992188 4.54382813 17.68359375 3.50390625 C18 1 18 1 19 0 C20.51928038 -0.07179964 22.04167482 -0.08392007 23.5625 -0.0625 C24.38878906 -0.05347656 25.21507812 -0.04445312 26.06640625 -0.03515625 C26.70449219 -0.02355469 27.34257812 -0.01195312 28 0 C28.02465622 4.25414623 28.04283899 8.50825498 28.05493164 12.76245117 C28.05997101 14.21070073 28.06680253 15.65894517 28.07543945 17.10717773 C28.08752247 19.18474588 28.09323211 21.26224697 28.09765625 23.33984375 C28.10551147 25.21724243 28.10551147 25.21724243 28.11352539 27.13256836 C28 30 28 30 27 31 C23.76150168 31.5681576 22.09563868 31.84571572 19 31 C15.0130127 27.66380959 11.65500723 23.96502169 10 19 C9.93941406 19.69867188 9.87882813 20.39734375 9.81640625 21.1171875 C9.73261719 22.02726562 9.64882812 22.93734375 9.5625 23.875 C9.48128906 24.77992188 9.40007812 25.68484375 9.31640625 26.6171875 C9 29 9 29 8 31 C5.36 31 2.72 31 0 31 C0 20.77 0 10.54 0 0 Z " fill="#7F7DA5" transform="translate(243,247)"/>
<path d="M0 0 C1.64453125 0.8125 1.64453125 0.8125 3.89453125 2.3125 C3.89453125 3.9625 3.89453125 5.6125 3.89453125 7.3125 C3.23453125 7.3125 2.57453125 7.3125 1.89453125 7.3125 C1.89453125 7.9725 1.89453125 8.6325 1.89453125 9.3125 C0.96769531 9.30089844 0.04085938 9.28929687 -0.9140625 9.27734375 C-2.71037109 9.26380859 -2.71037109 9.26380859 -4.54296875 9.25 C-6.33541016 9.23259766 -6.33541016 9.23259766 -8.1640625 9.21484375 C-10.99420216 8.97348208 -10.99420216 8.97348208 -12.10546875 10.3125 C-12.34366103 12.60865554 -12.34366103 12.60865554 -12.35546875 15.25 C-12.38125 16.14589844 -12.40703125 17.04179687 -12.43359375 17.96484375 C-12.3253125 18.73957031 -12.21703125 19.51429688 -12.10546875 20.3125 C-8.67026395 22.60263653 -7.12013775 22.49092973 -3.10546875 22.3125 C-2.77546875 21.6525 -2.44546875 20.9925 -2.10546875 20.3125 C-4.08546875 20.6425 -6.06546875 20.9725 -8.10546875 21.3125 C-8.10546875 18.6725 -8.10546875 16.0325 -8.10546875 13.3125 C-5.79303083 13.28564588 -3.48050605 13.26617159 -1.16796875 13.25 C0.11980469 13.23839844 1.40757812 13.22679687 2.734375 13.21484375 C5.89453125 13.3125 5.89453125 13.3125 6.89453125 14.3125 C7.42301727 19.47606836 7.72501397 23.88063324 5.08203125 28.4375 C0.40424879 32.44702783 -5.61355288 31.78300962 -11.484375 31.65625 C-14.75984486 31.34531003 -16.33622501 31.1875103 -18.85546875 29.1875 C-23.72676883 22.96306101 -25.00962369 18.11879543 -24.10546875 10.3125 C-22.63838038 5.73863625 -20.29786654 2.8423262 -16.33203125 0.2265625 C-11.27787498 -1.84830165 -5.16446414 -1.68635564 0 0 Z " fill="#706DA4" transform="translate(298.10546875,246.6875)"/>
<path d="M0 0 C2.05078125 0.03255208 4.1015625 0.06510417 6.15234375 0.09765625 C6.15234375 3.72765625 6.15234375 7.35765625 6.15234375 11.09765625 C9.45234375 11.09765625 12.75234375 11.09765625 16.15234375 11.09765625 C16.13171875 9.46828125 16.11109375 7.83890625 16.08984375 6.16015625 C16.06848307 4.47266284 16.08028864 2.78374591 16.15234375 1.09765625 C17.15234375 0.09765625 17.15234375 0.09765625 18.96484375 -0.03515625 C19.68671875 -0.03257812 20.40859375 -0.03 21.15234375 -0.02734375 C21.87421875 -0.02992188 22.59609375 -0.0325 23.33984375 -0.03515625 C25.15234375 0.09765625 25.15234375 0.09765625 26.15234375 1.09765625 C26.25237664 3.23118799 26.28315423 5.36803167 26.28515625 7.50390625 C26.28644531 8.80457031 26.28773438 10.10523438 26.2890625 11.4453125 C26.28592041 12.4664917 26.28592041 12.4664917 26.28271484 13.50830078 C26.27736615 15.5889414 26.28266055 17.66936614 26.2890625 19.75 C26.28777344 21.05066406 26.28648437 22.35132813 26.28515625 23.69140625 C26.28402832 24.89474609 26.28290039 26.09808594 26.28173828 27.33789062 C26.15234375 30.09765625 26.15234375 30.09765625 25.15234375 31.09765625 C22.48175524 31.23880786 19.82802137 31.14012732 17.15234375 31.09765625 C15.33144896 27.45586668 16.10113262 23.09212477 16.15234375 19.09765625 C12.85234375 19.09765625 9.55234375 19.09765625 6.15234375 19.09765625 C6.15234375 23.05765625 6.15234375 27.01765625 6.15234375 31.09765625 C3.51234375 31.09765625 0.87234375 31.09765625 -1.84765625 31.09765625 C-2.76346439 24.22909517 -2.9579391 17.45467022 -2.97265625 10.53515625 C-2.97716797 9.62991211 -2.98167969 8.72466797 -2.98632812 7.79199219 C-2.98439453 6.94282227 -2.98246094 6.09365234 -2.98046875 5.21875 C-2.97934082 4.44974365 -2.97821289 3.6807373 -2.97705078 2.88842773 C-2.7980423 0.41101785 -2.48059716 0.13110979 0 0 Z " fill="#63609E" transform="translate(150.84765625,246.90234375)"/>
<path d="M0 0 C2.64 0 5.28 0 8 0 C8 3.63 8 7.26 8 11 C11.3 11 14.6 11 18 11 C18 7.37 18 3.74 18 0 C24.93359375 -0.09765625 24.93359375 -0.09765625 27 0 C28.85714057 1.85714057 28.13048681 4.92507049 28.1328125 7.40625 C28.13410156 8.70691406 28.13539063 10.00757813 28.13671875 11.34765625 C28.13357666 12.36883545 28.13357666 12.36883545 28.13037109 13.41064453 C28.1250224 15.49128515 28.1303168 17.57170989 28.13671875 19.65234375 C28.13542969 20.95300781 28.13414062 22.25367188 28.1328125 23.59375 C28.13168457 24.79708984 28.13055664 26.00042969 28.12939453 27.24023438 C28 30 28 30 27 31 C24.32941149 31.14115161 21.67567762 31.04247107 19 31 C19 27.04 19 23.08 19 19 C15.37 19 11.74 19 8 19 C8 22.96 8 26.92 8 31 C5.36 31 2.72 31 0 31 C0 20.77 0 10.54 0 0 Z " fill="#534F8F" transform="translate(310,247)"/>
<path d="M0 0 C3.625 1.5 3.625 1.5 6 3 C5.67 5.31 5.34 7.62 5 10 C3.35 10.33 1.7 10.66 0 11 C0 10.34 0 9.68 0 9 C-1.98 9 -3.96 9 -6 9 C-2.96204014 11.09763895 -0.1607782 12.92433967 3.1875 14.5 C6.21306322 16.11363372 7.56958954 16.88675371 9 20 C9 26.94029851 9 26.94029851 5.90625 30.21875 C2.22512204 32.4749252 -0.20499835 32.53436001 -4.5 32.5 C-6.43359375 32.51546875 -6.43359375 32.51546875 -8.40625 32.53125 C-12.44511735 31.93420004 -14.10631542 30.80464813 -17 28 C-16.67 26.35 -16.34 24.7 -16 23 C-11.59085217 21.89771304 -7.51617599 21.92345464 -3 22 C-3.85464844 21.57847656 -4.70929688 21.15695312 -5.58984375 20.72265625 C-6.69457031 20.17480469 -7.79929688 19.62695312 -8.9375 19.0625 C-10.03964844 18.51722656 -11.14179687 17.97195313 -12.27734375 17.41015625 C-15 16 -15 16 -16 15 C-16.51880799 10.33072813 -16.96395769 6.31740884 -14.125 2.4375 C-9.56315191 -0.64845606 -5.39983287 -0.49539751 0 0 Z " fill="#706EA2" transform="translate(136,246)"/>
<path d="M0 0 C0.33 0.99 0.66 1.98 1 3 C-0.864352 6.17630341 -2.83752435 8.828973 -5.375 11.5 C-5.91125 12.325 -6.4475 13.15 -7 14 C-6.42079493 17.15430892 -6.42079493 17.15430892 -5 20 C-4.67 20.99 -4.34 21.98 -4 23 C-3.01 23.33 -2.02 23.66 -1 24 C1.07530387 26.92079805 2 28.37546731 2 32 C-1.13951869 32.52325311 -3.87271646 32.65533214 -7 32 C-10.09847709 29.67995804 -12.55255365 26.98761843 -15 24 C-15.2165625 25.7015625 -15.2165625 25.7015625 -15.4375 27.4375 C-16 31 -16 31 -17 32 C-19.31 32 -21.62 32 -24 32 C-24 21.77 -24 11.54 -24 1 C-21.36 1 -18.72 1 -16 1 C-16 3.31 -16 5.62 -16 8 C-15.34 8 -14.68 8 -14 8 C-13.7525 7.4225 -13.505 6.845 -13.25 6.25 C-9.73108242 -0.08405164 -6.85954908 -0.45730327 0 0 Z " fill="#5C5997" transform="translate(83,246)"/>
<path d="M0 0 C1.92246489 0.95272596 3.78999379 2.01474638 5.64453125 3.09375 C4.95703125 5.53125 4.95703125 5.53125 3.64453125 8.09375 C-0.16486463 9.57518173 -3.4274328 8.91589706 -7.35546875 8.09375 C-7.68546875 8.75375 -8.01546875 9.41375 -8.35546875 10.09375 C-7.11796875 10.1865625 -7.11796875 10.1865625 -5.85546875 10.28125 C-0.19423955 11.59546392 4.40322263 14.23178708 7.64453125 19.09375 C8.15288417 22.9911224 7.97415308 24.59931726 5.76953125 27.90625 C3.12727156 30.62622321 2.35684334 31.04680421 -1.4375 31.296875 C-3.28408203 31.32007813 -3.28408203 31.32007813 -5.16796875 31.34375 C-7.00294922 31.38242187 -7.00294922 31.38242187 -8.875 31.421875 C-12.58762431 31.07186328 -14.43611854 30.36976192 -17.35546875 28.09375 C-18.29296875 25.53125 -18.29296875 25.53125 -18.35546875 23.09375 C-16.35546875 21.09375 -16.35546875 21.09375 -14.078125 21.08203125 C-13.20027344 21.18902344 -12.32242188 21.29601562 -11.41796875 21.40625 C-10.54269531 21.50550781 -9.66742188 21.60476563 -8.765625 21.70703125 C-6.35546875 22.09375 -6.35546875 22.09375 -3.35546875 23.09375 C-3.35546875 22.43375 -3.35546875 21.77375 -3.35546875 21.09375 C-4.20109375 20.84625 -5.04671875 20.59875 -5.91796875 20.34375 C-15.46657986 16.87152778 -15.46657986 16.87152778 -17.35546875 13.09375 C-17.82421818 9.68789968 -17.9144846 6.49168947 -17.35546875 3.09375 C-12.67933489 -1.94208646 -6.23042731 -2.39711299 0 0 Z " fill="#65649D" transform="translate(216.35546875,246.90625)"/>
<path d="M0 0 C3.63 0 7.26 0 11 0 C20.49071429 23.31214286 20.49071429 23.31214286 20 31 C17.36 31 14.72 31 12 31 C11.67 28.69 11.34 26.38 11 24 C7.37 24 3.74 24 0 24 C-0.33 26.31 -0.66 28.62 -1 31 C-3.64 31 -6.28 31 -9 31 C-8.51564881 23.56559364 -6.59434231 17.37098658 -3.9375 10.4375 C-3.37192383 8.92446289 -3.37192383 8.92446289 -2.79492188 7.38085938 C-1.87247574 4.91711084 -0.9375195 2.45805226 0 0 Z " fill="#5C5A96" transform="translate(350,247)"/>
<path d="M0 0 C3.07279854 -0.35455368 5.93719117 -0.49334945 9 0 C12.96848187 4.10645889 14.50859897 9.58446877 16.25 14.9375 C16.518125 15.71029297 16.78625 16.48308594 17.0625 17.27929688 C18.64281449 22.04846025 19.29414021 25.97956136 19 31 C16.36 31 13.72 31 11 31 C10.67 30.030625 10.34 29.06125 10 28.0625 C8.39253557 24.89278582 8.39253557 24.89278582 6.01953125 24.37890625 C4.02222356 24.14912749 2.00940186 24.06588203 0 24 C-0.144375 24.969375 -0.28875 25.93875 -0.4375 26.9375 C-1 30 -1 30 -2 31 C-4.67058851 31.14115161 -7.32432238 31.04247107 -10 31 C-9.56764546 23.3984211 -7.44378483 17.39384974 -4.4375 10.4375 C-4.01275391 9.42880859 -3.58800781 8.42011719 -3.15039062 7.38085938 C-2.11067743 4.91592134 -1.06045208 2.45606964 0 0 Z " fill="#66639B" transform="translate(97,247)"/>
<path d="M0 0 C2.97 0 5.94 0 9 0 C11.83374078 5.66748157 12.63223832 10.69732561 13 17 C13.66 17 14.32 17 15 17 C15.0825 16.05125 15.165 15.1025 15.25 14.125 C15.93991766 9.11022533 18.00337644 4.61545074 20 0 C22.97 0 25.94 0 29 0 C28.48532525 6.83552397 26.5270911 12.53076431 24 18.875 C23.44699219 20.298125 23.44699219 20.298125 22.8828125 21.75 C20.24178166 28.51643669 20.24178166 28.51643669 19 31 C16.03 31 13.06 31 10 31 C8.31624018 26.96524575 6.65607274 22.92118852 5 18.875 C4.52304688 17.73289062 4.04609375 16.59078125 3.5546875 15.4140625 C2.87792969 13.75117188 2.87792969 13.75117188 2.1875 12.0546875 C1.76855469 11.03874512 1.34960938 10.02280273 0.91796875 8.97607422 C-0.05390913 5.82522544 -0.17090738 3.27714899 0 0 Z " fill="#706FA2" transform="translate(11,247)"/>
<path d="M0 0 C2.64 0 5.28 0 8 0 C9.20029908 2.40059817 9.11459743 3.89360649 9.09765625 6.5703125 C9.09443359 7.46621094 9.09121094 8.36210937 9.08789062 9.28515625 C9.07951172 10.22230469 9.07113281 11.15945313 9.0625 12.125 C9.05798828 13.06988281 9.05347656 14.01476562 9.04882812 14.98828125 C9.03702357 17.32558387 9.02055759 19.66276061 9 22 C10.03060547 21.98259766 10.03060547 21.98259766 11.08203125 21.96484375 C11.98308594 21.95582031 12.88414062 21.94679688 13.8125 21.9375 C14.70582031 21.92589844 15.59914063 21.91429687 16.51953125 21.90234375 C19 22 19 22 22 23 C22 25.64 22 28.28 22 31 C14.74 31 7.48 31 0 31 C0 20.77 0 10.54 0 0 Z " fill="#4F4C90" transform="translate(375,247)"/>
<path d="M0 0 C0.495 3.465 0.495 3.465 1 7 C-0.75 7.6875 -0.75 7.6875 -3 8 C-3.598125 7.54625 -4.19625 7.0925 -4.8125 6.625 C-7.75723108 4.43748548 -10.40438147 4.34573255 -14 4 C-14.33 4.99 -14.66 5.98 -15 7 C-16.66723633 8.10327148 -16.66723633 8.10327148 -18.83203125 9.12109375 C-19.62496582 9.4975 -20.41790039 9.87390625 -21.23486328 10.26171875 C-22.0854834 10.64972656 -22.93610352 11.03773438 -23.8125 11.4375 C-24.67601074 11.83710938 -25.53952148 12.23671875 -26.42919922 12.6484375 C-43.44116269 20.40281652 -61.57066608 24.26552398 -80 19 C-80 18.67 -80 18.34 -80 18 C-77.03 17.67 -74.06 17.34 -71 17 C-71.66 15.68 -72.32 14.36 -73 13 C-72.31292969 13.15597656 -71.62585938 13.31195313 -70.91796875 13.47265625 C-70.01691406 13.66730469 -69.11585938 13.86195313 -68.1875 14.0625 C-67.29417969 14.25972656 -66.40085938 14.45695313 -65.48046875 14.66015625 C-62.87369221 15.20349463 -62.87369221 15.20349463 -60 14 C-60 14.66 -60 15.32 -60 16 C-50.31139704 15.70948717 -42.15585487 14.26994817 -33 11 C-32.67 9.35 -32.34 7.7 -32 6 C-31.29875 5.90203125 -30.5975 5.8040625 -29.875 5.703125 C-24.27342791 4.82026853 -19.86167352 3.61204611 -14.90625 0.890625 C-10.1576259 -1.32799446 -5.01764087 -1.4112115 0 0 Z " fill="#81BCC2" transform="translate(226,194)"/>
<path d="M0 0 C5.24524639 0.90716013 8.23075743 4.4801402 12 8 C12.56847656 8.49242188 13.13695312 8.98484375 13.72265625 9.4921875 C21.01826563 16.14964665 31.62796538 29.30337685 32.1875 39.375 C32.0946875 40.674375 32.0946875 40.674375 32 42 C26.62528658 38.09111751 22.56125959 33.136615 18.3828125 28.01953125 C10.74160338 18.86104855 1.66191945 12.25878039 -9 7 C-9 6.67 -9 6.34 -9 6 C-6.36 6 -3.72 6 -1 6 C-0.67 6.66 -0.34 7.32 0 8 C1.65 8 3.3 8 5 8 C4.34 7.67 3.68 7.34 3 7 C3 5.68 3 4.36 3 3 C2.01 3 1.02 3 0 3 C0 2.01 0 1.02 0 0 Z " fill="#6CB4BE" transform="translate(184,109)"/>
<path d="M0 0 C8 0 8 0 11 2 C11.328125 3.875 11.328125 3.875 11.25 6 C11.23453125 6.70125 11.2190625 7.4025 11.203125 8.125 C11 10 11 10 10 12 C12.97 12.495 12.97 12.495 16 13 C16 15 16 15 14.75 16.625 C13 18 13 18 9 18 C9.01160156 18.77085937 9.02320313 19.54171875 9.03515625 20.3359375 C9.04869141 21.84027344 9.04869141 21.84027344 9.0625 23.375 C9.07410156 24.37273437 9.08570313 25.37046875 9.09765625 26.3984375 C9 29 9 29 8 31 C5.36 31 2.72 31 0 31 C0 20.77 0 10.54 0 0 Z " fill="#6A68A6" transform="translate(243,247)"/>
<path d="M0 0 C0.721875 0.00257813 1.44375 0.00515625 2.1875 0.0078125 C2.909375 0.00523437 3.63125 0.00265625 4.375 0 C6.1875 0.1328125 6.1875 0.1328125 7.1875 1.1328125 C7.28753289 3.26634424 7.31831048 5.40318792 7.3203125 7.5390625 C7.32160156 8.83972656 7.32289063 10.14039063 7.32421875 11.48046875 C7.32107666 12.50164795 7.32107666 12.50164795 7.31787109 13.54345703 C7.3125224 15.62409765 7.3178168 17.70452239 7.32421875 19.78515625 C7.32292969 21.08582031 7.32164062 22.38648438 7.3203125 23.7265625 C7.31918457 24.92990234 7.31805664 26.13324219 7.31689453 27.37304688 C7.1875 30.1328125 7.1875 30.1328125 6.1875 31.1328125 C3.51691149 31.27396411 0.86317762 31.17528357 -1.8125 31.1328125 C-3.63339479 27.49102293 -2.86371113 23.12728102 -2.8125 19.1328125 C-6.1125 19.1328125 -9.4125 19.1328125 -12.8125 19.1328125 C-12.8125 18.8028125 -12.8125 18.4728125 -12.8125 18.1328125 C-9.1825 17.8028125 -5.5525 17.4728125 -1.8125 17.1328125 C-1.8125 15.8128125 -1.8125 14.4928125 -1.8125 13.1328125 C-0.8225 13.1328125 0.1675 13.1328125 1.1875 13.1328125 C1.1875 9.5028125 1.1875 5.8728125 1.1875 2.1328125 C0.5275 2.1328125 -0.1325 2.1328125 -0.8125 2.1328125 C-0.8125 5.4328125 -0.8125 8.7328125 -0.8125 12.1328125 C-4.7725 12.1328125 -8.7325 12.1328125 -12.8125 12.1328125 C-12.8125 11.8028125 -12.8125 11.4728125 -12.8125 11.1328125 C-9.5125 11.1328125 -6.2125 11.1328125 -2.8125 11.1328125 C-2.833125 9.5034375 -2.85375 7.8740625 -2.875 6.1953125 C-2.89636068 4.50781909 -2.88455511 2.81890216 -2.8125 1.1328125 C-1.8125 0.1328125 -1.8125 0.1328125 0 0 Z " fill="#7673A9" transform="translate(169.8125,246.8671875)"/>
<path d="M0 0 C2.97 0 5.94 0 9 0 C9 10.23 9 20.46 9 31 C6.03 31 3.06 31 0 31 C-0.97537756 24.48974185 -1.15101421 18.13975895 -1.125 11.5625 C-1.12886719 10.55767578 -1.13273437 9.55285156 -1.13671875 8.51757812 C-1.13542969 7.56431641 -1.13414063 6.61105469 -1.1328125 5.62890625 C-1.13168457 4.76338135 -1.13055664 3.89785645 -1.12939453 3.00610352 C-1 1 -1 1 0 0 Z " fill="#585492" transform="translate(43,247)"/>
<path d="M0 0 C0 3.79763164 -0.23980101 5.95472639 -2.5 9.0625 C-8.77229686 13.92353007 -16.18988351 14.47279212 -23.875 14.3125 C-24.74543945 14.30412109 -25.61587891 14.29574219 -26.51269531 14.28710938 C-32.85715861 14.16887487 -38.81035029 13.45638817 -45 12 C-44.01 15.63 -43.02 19.26 -42 23 C-40.68 23 -39.36 23 -38 23 C-37.34 24.65 -36.68 26.3 -36 28 C-38.1875 28.4375 -38.1875 28.4375 -41 28 C-45.72453826 23.49021348 -47.85055071 17.51205835 -48.125 11.0625 C-48.08375 10.381875 -48.0425 9.70125 -48 9 C-44.9586234 8.10684178 -42.31179511 7.90476128 -39.1484375 7.97265625 C-38.21386719 7.98490234 -37.27929688 7.99714844 -36.31640625 8.00976562 C-34.37882388 8.04450316 -32.44131186 8.08346035 -30.50390625 8.12695312 C-22.11483228 8.2245005 -14.29946957 7.241338 -6.5 4 C-5.6853125 3.67 -4.870625 3.34 -4.03125 3 C-1.84389195 2.05861041 -1.84389195 2.05861041 0 0 Z " fill="#68BFC2" transform="translate(190,178)"/>
<path d="M0 0 C0.99 0 1.98 0 3 0 C3 2.31 3 4.62 3 7 C5.31 7 7.62 7 10 7 C9.67 7.99 9.34 8.98 9 10 C8.01 10 7.02 10 6 10 C6.33 11.65 6.66 13.3 7 15 C8.32 15 9.64 15 11 15 C11.1875 17.8125 11.1875 17.8125 11 21 C9.48828125 22.69921875 9.48828125 22.69921875 8 24 C4.07805532 18.71077185 1.28398017 14.67353409 1 8 C-8.3597958 12.58438978 -13.3985432 19.83949614 -18 29 C-18.66 29 -19.32 29 -20 29 C-21.28403765 20.93909695 -18.94594869 16.21979711 -14.24609375 9.71875 C-11.42190601 6.30025493 -8.54248697 3.65686523 -5 1 C-5 2.65 -5 4.3 -5 6 C-4.01 6 -3.02 6 -2 6 C-2 4.68 -2 3.36 -2 2 C-1.34 2 -0.68 2 0 2 C0 1.34 0 0.68 0 0 Z " fill="#84C0C9" transform="translate(86,153)"/>
<path d="M0 0 C2 2 2 2 2 6 C2.5775 6.20625 3.155 6.4125 3.75 6.625 C6.79378719 8.48509217 8.05485833 11.05091424 10 14 C10.99 14.33 11.98 14.66 13 15 C14.39712274 16.95597184 15.73779907 18.95436401 17 21 C3.69172703 21.61739411 -5.33180363 18.19497024 -17 12 C-16.67 11.01 -16.34 10.02 -16 9 C-11.71 9 -7.42 9 -3 9 C-2.01 6.03 -1.02 3.06 0 0 Z " fill="#546497" transform="translate(139,191)"/>
<path d="M0 0 C1.64453125 0.8125 1.64453125 0.8125 3.89453125 2.3125 C3.89453125 3.9625 3.89453125 5.6125 3.89453125 7.3125 C3.23453125 7.3125 2.57453125 7.3125 1.89453125 7.3125 C1.89453125 7.9725 1.89453125 8.6325 1.89453125 9.3125 C0.97929687 9.27769531 0.0640625 9.24289063 -0.87890625 9.20703125 C-2.06742187 9.17996094 -3.2559375 9.15289062 -4.48046875 9.125 C-5.66382813 9.09019531 -6.8471875 9.05539063 -8.06640625 9.01953125 C-9.06929688 9.11621094 -10.0721875 9.21289062 -11.10546875 9.3125 C-13.40180699 12.75700737 -13.6456336 15.25062283 -14.10546875 19.3125 C-14.43546875 19.3125 -14.76546875 19.3125 -15.10546875 19.3125 C-15.43546875 16.6725 -15.76546875 14.0325 -16.10546875 11.3125 C-15.44546875 11.3125 -14.78546875 11.3125 -14.10546875 11.3125 C-14.10546875 10.6525 -14.10546875 9.9925 -14.10546875 9.3125 C-15.09546875 9.3125 -16.08546875 9.3125 -17.10546875 9.3125 C-17.43546875 10.3025 -17.76546875 11.2925 -18.10546875 12.3125 C-19.09546875 12.3125 -20.08546875 12.3125 -21.10546875 12.3125 C-21.10546875 13.3025 -21.10546875 14.2925 -21.10546875 15.3125 C-21.76546875 15.3125 -22.42546875 15.3125 -23.10546875 15.3125 C-23.10546875 16.9625 -23.10546875 18.6125 -23.10546875 20.3125 C-23.43546875 20.3125 -23.76546875 20.3125 -24.10546875 20.3125 C-24.69364469 9.28964727 -24.69364469 9.28964727 -21.10546875 4.3125 C-15.60213119 -1.75404462 -7.63555925 -2.49324384 0 0 Z " fill="#595693" transform="translate(298.10546875,246.6875)"/>
<path d="M0 0 C3.625 1.5 3.625 1.5 6 3 C5.67 5.31 5.34 7.62 5 10 C3.35 10.33 1.7 10.66 0 11 C0 10.34 0 9.68 0 9 C-1.98 9 -3.96 9 -6 9 C-5.01 9.99 -4.02 10.98 -3 12 C-3.94875 12.2475 -4.8975 12.495 -5.875 12.75 C-9.08693191 13.6857077 -9.08693191 13.6857077 -10.375 16.125 C-10.58125 16.74375 -10.7875 17.3625 -11 18 C-13.5 17.125 -13.5 17.125 -16 15 C-16.70870453 11.57361858 -16.62521476 8.43586489 -16 5 C-11.77771088 -0.7704618 -6.67323062 -0.61222299 0 0 Z " fill="#615D97" transform="translate(136,246)"/>
<path d="M0 0 C1.67542976 0.28604898 3.34385343 0.61781233 5 1 C5 3.64 5 6.28 5 9 C6.32 9.33 7.64 9.66 9 10 C9.125 12.875 9.125 12.875 9 16 C8.34 16.66 7.68 17.32 7 18 C7 17.01 7 16.02 7 15 C6.01 15 5.02 15 4 15 C3.34 16.32 2.68 17.64 2 19 C1.5153125 18.69964844 1.030625 18.39929688 0.53125 18.08984375 C-4.85292136 15.03536192 -7.95724503 14.70512393 -14 16 C-12.68139111 11.38486888 -10.78644563 7.90102388 -8 4 C-6.35 4.33 -4.7 4.66 -3 5 C-2.690625 4.360625 -2.38125 3.72125 -2.0625 3.0625 C-1 1 -1 1 0 0 Z " fill="#52A3B9" transform="translate(101,119)"/>
<path d="M0 0 C2.64 0 5.28 0 8 0 C8 1.32 8 2.64 8 4 C7.34 4.33 6.68 4.66 6 5 C6.495 6.485 6.495 6.485 7 8 C1.04098036 13.92396658 -5.35249294 17.59290375 -13 21 C-13.8146875 21.38285156 -14.629375 21.76570313 -15.46875 22.16015625 C-18.53514707 23.17755651 -21.08963441 23.19583221 -24.3125 23.125 C-25.38113281 23.10695312 -26.44976562 23.08890625 -27.55078125 23.0703125 C-28.35902344 23.04710937 -29.16726563 23.02390625 -30 23 C-30.33 21.68 -30.66 20.36 -31 19 C-28.69 19.33 -26.38 19.66 -24 20 C-24 19.01 -24 18.02 -24 17 C-18.58461538 15.76923077 -18.58461538 15.76923077 -15.625 16.9375 C-14.820625 17.4634375 -14.820625 17.4634375 -14 18 C-14 17.34 -14 16.68 -14 16 C-13.01 16 -12.02 16 -11 16 C-9.58622659 13.36095629 -8.62759865 10.92879371 -8 8 C-6.906875 8.061875 -5.81375 8.12375 -4.6875 8.1875 C-1.08247389 8.37243237 -1.08247389 8.37243237 0.8125 6.5 C1.204375 6.005 1.59625 5.51 2 5 C2.66 5 3.32 5 4 5 C4 4.34 4 3.68 4 3 C2.68 3.33 1.36 3.66 0 4 C0 2.68 0 1.36 0 0 Z " fill="#65649E" transform="translate(314,192)"/>
<path d="M0 0 C2.9375 1.5625 2.9375 1.5625 5 3 C5.66 2.01 6.32 1.02 7 0 C7.99 0 8.98 0 10 0 C9.67 2.31 9.34 4.62 9 7 C8.443125 7.14695313 7.88625 7.29390625 7.3125 7.4453125 C1.94382602 9.02326735 -1.89599219 11.08844625 -6.17578125 14.6953125 C-8.12653516 16.09049838 -9.65788853 16.57604163 -12 17 C-12.13501894 14.56065775 -12.23403897 12.12875896 -12.3125 9.6875 C-12.35439453 8.99720703 -12.39628906 8.30691406 -12.43945312 7.59570312 C-12.48828125 5.57421875 -12.48828125 5.57421875 -12 2 C-7.94231932 -1.50655258 -5.09275302 -1.27318825 0 0 Z " fill="#5985AA" transform="translate(98,134)"/>
<path d="M0 0 C7.5383733 -0.4523024 13.69747894 -0.54085253 20 4 C21.02303213 4.97642474 22.0299205 5.9709491 23 7 C22.34 7 21.68 7 21 7 C21 7.99 21 8.98 21 10 C21.99 10 22.98 10 24 10 C24 11.32 24 12.64 24 14 C24.99 14.33 25.98 14.66 27 15 C27 15.33 27 15.66 27 16 C25.02 16 23.04 16 21 16 C20.67 15.01 20.34 14.02 20 13 C17.36 13 14.72 13 12 13 C12.33 11.68 12.66 10.36 13 9 C12.24074219 8.93941406 11.48148438 8.87882812 10.69921875 8.81640625 C9.70535156 8.73261719 8.71148437 8.64882812 7.6875 8.5625 C6.70136719 8.48128906 5.71523437 8.40007812 4.69921875 8.31640625 C2 8 2 8 -1 7 C-0.67 4.69 -0.34 2.38 0 0 Z " fill="#5EB9C3" transform="translate(163,102)"/>
<path d="M0 0 C2.31 0 4.62 0 7 0 C7 10.23 7 20.46 7 31 C4.69 31 2.38 31 0 31 C0 20.77 0 10.54 0 0 Z " fill="#65639A" transform="translate(229,247)"/>
<path d="M0 0 C4.51478398 0.53115106 7.34666857 2.36620292 11 5 C9.50867052 9.72254335 9.50867052 9.72254335 6.9375 11.125 C6.298125 11.41375 5.65875 11.7025 5 12 C4.67 12.99 4.34 13.98 4 15 C1.9375 16.8125 1.9375 16.8125 -1 18 C-3.84400642 17.65239922 -6.24976846 16.88566778 -9 16 C-9.33 14.02 -9.66 12.04 -10 10 C-8.5459375 9.319375 -8.5459375 9.319375 -7.0625 8.625 C-3.92920418 7.34213779 -3.92920418 7.34213779 -3 5 C-2.34 5 -1.68 5 -1 5 C-0.67 3.35 -0.34 1.7 0 0 Z " fill="#514C84" transform="translate(198,159)"/>
<path d="M0 0 C1.65 0 3.3 0 5 0 C5 8.91 5 17.82 5 27 C-3 28 -3 28 -5.09375 26.671875 C-5.5578125 26.03765625 -6.021875 25.4034375 -6.5 24.75 C-7.22703125 23.81414062 -7.22703125 23.81414062 -7.96875 22.859375 C-9 21 -9 21 -9 18 C-6.69 18.33 -4.38 18.66 -2 19 C-2 18.01 -2 17.02 -2 16 C-1.34 16 -0.68 16 0 16 C0 10.72 0 5.44 0 0 Z " fill="#555398" transform="translate(264,249)"/>
<path d="M0 0 C2.31243792 -0.02685412 4.6249627 -0.04632841 6.9375 -0.0625 C8.22527344 -0.07410156 9.51304687 -0.08570313 10.83984375 -0.09765625 C14 0 14 0 15 1 C15.54078331 6.28371889 15.87102911 10.61179736 13 15.1875 C12.01 16.0846875 12.01 16.0846875 11 17 C10.01 16.67 9.02 16.34 8 16 C8 15.34 8 14.68 8 14 C8.99 14 9.98 14 11 14 C11 13.34 11 12.68 11 12 C10.32453125 12.08378906 9.6490625 12.16757812 8.953125 12.25390625 C8.06109375 12.35574219 7.1690625 12.45757812 6.25 12.5625 C5.36828125 12.66691406 4.4865625 12.77132813 3.578125 12.87890625 C1.11567549 12.99456676 -0.66538064 12.73638695 -3 12 C-3 11.01 -3 10.02 -3 9 C-0.36 9 2.28 9 5 9 C5.33 8.34 5.66 7.68 6 7 C4.02 7.33 2.04 7.66 0 8 C0 5.36 0 2.72 0 0 Z " fill="#65619D" transform="translate(290,260)"/>
<path d="M0 0 C0.495 3.465 0.495 3.465 1 7 C-0.75 7.6875 -0.75 7.6875 -3 8 C-3.598125 7.54625 -4.19625 7.0925 -4.8125 6.625 C-7.75723108 4.43748548 -10.40438147 4.34573255 -14 4 C-14.33 4.99 -14.66 5.98 -15 7 C-17.20007307 8.40379998 -19.30226315 9.59101631 -21.625 10.75 C-22.22957031 11.07871094 -22.83414063 11.40742188 -23.45703125 11.74609375 C-28.02355584 14.05369786 -31.06419287 14.14196052 -36 13 C-35.01 12.34 -34.02 11.68 -33 11 C-32.27034634 8.43717258 -32.27034634 8.43717258 -32 6 C-30.948125 5.85304687 -30.948125 5.85304687 -29.875 5.703125 C-24.27342791 4.82026853 -19.86167352 3.61204611 -14.90625 0.890625 C-10.1576259 -1.32799446 -5.01764087 -1.4112115 0 0 Z " fill="#5A9DB3" transform="translate(226,194)"/>
<path d="M0 0 C6.85905506 0.74885253 13.74291448 1.96911349 19.96875 5.08203125 C18.21875 8.95703125 18.21875 8.95703125 15.96875 10.08203125 C13.70130726 10.23146981 11.4284325 10.30348027 9.15625 10.33203125 C7.32126953 10.37070312 7.32126953 10.37070312 5.44921875 10.41015625 C1.73659444 10.06014453 -0.11189979 9.35804317 -3.03125 7.08203125 C-3.96875 4.51953125 -3.96875 4.51953125 -4.03125 2.08203125 C-2.03125 0.08203125 -2.03125 0.08203125 0 0 Z " fill="#575694" transform="translate(202.03125,267.91796875)"/>
<path d="M0 0 C2.97 0 5.94 0 9 0 C8.48065724 6.3784069 6.8635997 11.60049419 4.4375 17.5 C3.9434668 18.73363281 3.9434668 18.73363281 3.43945312 19.9921875 C2.63471991 21.99818913 1.81854242 23.99959345 1 26 C0.34 25.34 -0.32 24.68 -1 24 C-0.625 20.375 -0.625 20.375 0 17 C0.99 16.67 1.98 16.34 3 16 C3 15.01 3 14.02 3 13 C0.69 13 -1.62 13 -4 13 C-3.71517632 11.58194169 -3.42181856 10.16559621 -3.125 8.75 C-2.96257813 7.96109375 -2.80015625 7.1721875 -2.6328125 6.359375 C-2 4 -2 4 0 0 Z " fill="#7675A1" transform="translate(31,247)"/>
<path d="M0 0 C0.33 0 0.66 0 1 0 C1 3.63 1 7.26 1 11 C4.3 11 7.6 11 11 11 C11 7.37 11 3.74 11 0 C17.93359375 -0.09765625 17.93359375 -0.09765625 20 0 C21 1 21 1 21.11352539 3.77563477 C21.10828857 4.98533936 21.10305176 6.19504395 21.09765625 7.44140625 C21.09443359 8.74658203 21.09121094 10.05175781 21.08789062 11.39648438 C21.07953401 12.7851569 21.07106905 14.17382877 21.0625 15.5625 C21.05748666 16.95507656 21.05292347 18.34765481 21.04882812 19.74023438 C21.03699434 23.1601987 21.0205088 26.58007844 21 30 C18.36 30 15.72 30 13 30 C13 26.37 13 22.74 13 19 C13.33 19 13.66 19 14 19 C14 22.3 14 25.6 14 29 C15.32 29 16.64 29 18 29 C18 20.09 18 11.18 18 2 C16.35 2 14.7 2 13 2 C13 5.3 13 8.6 13 12 C8.71 12 4.42 12 0 12 C0 8.04 0 4.08 0 0 Z " fill="#8581A7" transform="translate(317,247)"/>
<path d="M0 0 C1.46841427 2.93682854 0.76696084 4.86824322 0 8 C-1.5 9.625 -1.5 9.625 -3 11 C-3.71447643 13.10332891 -3.71447643 13.10332891 -4 15 C-6.475 14.505 -6.475 14.505 -9 14 C-9 14.99 -9 15.98 -9 17 C-10.32 17 -11.64 17 -13 17 C-13.33 17.99 -13.66 18.98 -14 20 C-15.65 20 -17.3 20 -19 20 C-19 21.32 -19 22.64 -19 24 C-21.31 24.33 -23.62 24.66 -26 25 C-26 21.42424104 -24.91159393 19.94704065 -23 17 C-23.66 16.67 -24.32 16.34 -25 16 C-23.4221875 16.3403125 -23.4221875 16.3403125 -21.8125 16.6875 C-17.46587905 17.04378041 -16.3540071 16.64790034 -13 14 C-10.36296004 11.61410671 -8.29877459 9.5104066 -6.5 6.4375 C-4.74036196 3.57808819 -2.69445709 1.96622544 0 0 Z " fill="#548CB2" transform="translate(215,159)"/>
<path d="M0 0 C4.19920237 -0.04953687 8.39824869 -0.08578411 12.59765625 -0.10986328 C14.02542078 -0.11990427 15.45316483 -0.13353981 16.88085938 -0.15087891 C18.93624941 -0.17521152 20.99136692 -0.18650202 23.046875 -0.1953125 C24.28276367 -0.20578613 25.51865234 -0.21625977 26.79199219 -0.22705078 C29.81659371 -0.01298081 31.46985651 0.40346841 34 2 C34 2.99 34 3.98 34 5 C33.2886792 4.99476318 32.5773584 4.98952637 31.84448242 4.98413086 C28.62549725 4.96335982 25.40652617 4.95033942 22.1875 4.9375 C21.06794922 4.92912109 19.94839844 4.92074219 18.79492188 4.91210938 C17.72177734 4.90888672 16.64863281 4.90566406 15.54296875 4.90234375 C14.55321045 4.89710693 13.56345215 4.89187012 12.54370117 4.88647461 C9.87607266 4.88930041 9.87607266 4.88930041 7 6 C4.66700175 6.03954234 2.33291811 6.04401732 0 6 C0 4.02 0 2.04 0 0 Z " fill="#5F5F91" transform="translate(273,144)"/>
<path d="M0 0 C0.33 3.3 0.66 6.6 1 10 C4.96 10.33 8.92 10.66 13 11 C13 7.7 13 4.4 13 1 C13.66 1 14.32 1 15 1 C15 4.63 15 8.26 15 12 C14.01 12 13.02 12 12 12 C12 13.32 12 14.64 12 16 C8.04 16.33 4.08 16.66 0 17 C-0.33 15.02 -0.66 13.04 -1 11 C-2.98 10.34 -4.96 9.68 -7 9 C-7.3125 6.1875 -7.3125 6.1875 -7 3 C-4.61107499 1.11400657 -3.08148442 0 0 0 Z " fill="#504C8A" transform="translate(156,248)"/>
<path d="M0 0 C2.31 0 4.62 0 7 0 C7 3.96 7 7.92 7 12 C9.64 12.99 12.28 13.98 15 15 C15 15.66 15 16.32 15 17 C11.7 17 8.4 17 5 17 C5 20.96 5 24.92 5 29 C4.01 29 3.02 29 2 29 C2.01047363 28.19256348 2.02094727 27.38512695 2.03173828 26.55322266 C2.07319831 22.91051318 2.09929438 19.26785325 2.125 15.625 C2.14175781 14.35398437 2.15851563 13.08296875 2.17578125 11.7734375 C2.18222656 10.56171875 2.18867188 9.35 2.1953125 8.1015625 C2.20578613 6.98088379 2.21625977 5.86020508 2.22705078 4.70556641 C2.28055323 1.85022157 2.28055323 1.85022157 0 0 Z " fill="#59569E" transform="translate(310,247)"/>
<path d="M0 0 C3.07283821 -0.35455825 5.93649591 -0.48761657 9 0 C13.29564199 4.29564199 14.49966772 10.24872627 16 16 C14.71034824 17.37562854 13.37310707 18.70766393 12 20 C11.34 20 10.68 20 10 20 C10 20.66 10 21.32 10 22 C7.36 22 4.72 22 2 22 C2.33 21.34 2.66 20.68 3 20 C4.32 20 5.64 20 7 20 C7 19.34 7 18.68 7 18 C5.68 17.67 4.36 17.34 3 17 C3 15.35 3 13.7 3 12 C3.99 12 4.98 12 6 12 C6 12.99 6 13.98 6 15 C9.465 14.505 9.465 14.505 13 14 C12.67 12.35 12.34 10.7 12 9 C11.01 9 10.02 9 9 9 C8.67 6.69 8.34 4.38 8 2 C5.69 2 3.38 2 1 2 C1 2.66 1 3.32 1 4 C0.34 4 -0.32 4 -1 4 C-0.67 2.68 -0.34 1.36 0 0 Z " fill="#7C78AF" transform="translate(97,247)"/>
<path d="M0 0 C4.95 0 9.9 0 15 0 C14.67 1.32 14.34 2.64 14 4 C11.69 4.33 9.38 4.66 7 5 C6.67 5.99 6.34 6.98 6 8 C6.66 8.33 7.32 8.66 8 9 C8 10.98 8 12.96 8 15 C3.545 14.01 3.545 14.01 -1 13 C-0.34 12.67 0.32 12.34 1 12 C1 11.34 1 10.68 1 10 C-0.32 9.67 -1.64 9.34 -3 9 C-2.01 6.03 -1.02 3.06 0 0 Z " fill="#557FA9" transform="translate(146,139)"/>
<path d="M0 0 C0.66 0 1.32 0 2 0 C2.64228843 12.84576865 2.36987669 23.44561003 -6 34 C-7.32 33.67 -8.64 33.34 -10 33 C-10 32.01 -10 31.02 -10 30 C-9.01 30 -8.02 30 -7 30 C-7 28.68 -7 27.36 -7 26 C-6.34 26 -5.68 26 -5 26 C-4.93941406 25.38511719 -4.87882812 24.77023438 -4.81640625 24.13671875 C-4.73261719 23.32847656 -4.64882813 22.52023438 -4.5625 21.6875 C-4.48128906 20.88699219 -4.40007812 20.08648437 -4.31640625 19.26171875 C-4 17 -4 17 -3 14 C-2.34 14 -1.68 14 -1 14 C-1.33 12.68 -1.66 11.36 -2 10 C-1.34 10 -0.68 10 0 10 C0 6.7 0 3.4 0 0 Z " fill="#5E6097" transform="translate(334,158)"/>
<path d="M0 0 C0.99 0 1.98 0 3 0 C3 2.31 3 4.62 3 7 C5.31 7 7.62 7 10 7 C9.67 7.99 9.34 8.98 9 10 C8.01 10 7.02 10 6 10 C6.33 11.65 6.66 13.3 7 15 C8.32 15 9.64 15 11 15 C11.1875 17.8125 11.1875 17.8125 11 21 C9.48828125 22.69921875 9.48828125 22.69921875 8 24 C4.07805532 18.71077185 1.28398017 14.67353409 1 8 C0.21625 8.20625 -0.5675 8.4125 -1.375 8.625 C-2.24125 8.74875 -3.1075 8.8725 -4 9 C-4.66 8.34 -5.32 7.68 -6 7 C-4.68 6.67 -3.36 6.34 -2 6 C-2 4.68 -2 3.36 -2 2 C-1.34 2 -0.68 2 0 2 C0 1.34 0 0.68 0 0 Z " fill="#65B9C3" transform="translate(86,153)"/>
<path d="M0 0 C0.99 0 1.98 0 3 0 C3.33 0.66 3.66 1.32 4 2 C6.52733235 2.65555119 6.52733235 2.65555119 9 3 C9 3.66 9 4.32 9 5 C7.68 5.33 6.36 5.66 5 6 C7.31 6.33 9.62 6.66 12 7 C12 6.34 12 5.68 12 5 C12.804375 4.71125 13.60875 4.4225 14.4375 4.125 C17.1326468 3.26737432 17.1326468 3.26737432 18 1 C19.9078584 4.1749094 20.1609041 6.10585211 19.625 9.75 C19.45871094 10.94882812 19.45871094 10.94882812 19.2890625 12.171875 C19.14597656 13.07679688 19.14597656 13.07679688 19 14 C17.35 14 15.7 14 14 14 C13.67 12.35 13.34 10.7 13 9 C8.38 9 3.76 9 -1 9 C-1 2 -1 2 0 0 Z " fill="#58579E" transform="translate(95,262)"/>
<path d="M0 0 C2.64 0 5.28 0 8 0 C9.20029908 2.40059817 9.11459743 3.89360649 9.09765625 6.5703125 C9.09443359 7.46621094 9.09121094 8.36210937 9.08789062 9.28515625 C9.07951172 10.22230469 9.07113281 11.15945313 9.0625 12.125 C9.05798828 13.06988281 9.05347656 14.01476562 9.04882812 14.98828125 C9.03702375 17.3255477 9.01908799 19.66278169 9 22 C12.3 22 15.6 22 19 22 C19 22.33 19 22.66 19 23 C15.04 23 11.08 23 7 23 C6.93941406 21.74703125 6.87882812 20.4940625 6.81640625 19.203125 C6.73197744 17.55207276 6.64733061 15.90103165 6.5625 14.25 C6.52318359 13.425 6.48386719 12.6 6.44335938 11.75 C6.38051758 10.55117188 6.38051758 10.55117188 6.31640625 9.328125 C6.27974854 8.5949707 6.24309082 7.86181641 6.20532227 7.10644531 C5.99885215 4.98822395 5.56867914 3.0480544 5 1 C3.68 1 2.36 1 1 1 C1 10.57 1 20.14 1 30 C7.6 30 14.2 30 21 30 C21 27.69 21 25.38 21 23 C21.33 23 21.66 23 22 23 C22 25.64 22 28.28 22 31 C14.74 31 7.48 31 0 31 C0 20.77 0 10.54 0 0 Z " fill="#8C8AAE" transform="translate(375,247)"/>
<path d="M0 0 C5.72992618 0.50342802 9.93964482 2.83132463 14.875 5.5625 C15.65875 5.98724609 16.4425 6.41199219 17.25 6.84960938 C19.17100387 7.89210538 21.0873249 8.94232445 23 10 C21.68 10.33 20.36 10.66 19 11 C19.66 14.63 20.32 18.26 21 22 C20.01 21.67 19.02 21.34 18 21 C17.29618843 19.01276732 16.6288189 17.01222047 16 15 C15.34 14.67 14.68 14.34 14 14 C13.9175 13.38125 13.835 12.7625 13.75 12.125 C13.15225004 9.70019312 13.15225004 9.70019312 10.3125 8.4375 C9.219375 7.963125 8.12625 7.48875 7 7 C1.19178082 4.47945205 1.19178082 4.47945205 0.125 1.8125 C0.08375 1.214375 0.0425 0.61625 0 0 Z " fill="#638DA2" transform="translate(123,176)"/>
<path d="M0 0 C0.33 1.65 0.66 3.3 1 5 C0.67 5 0.34 5 0 5 C-0.33 6.65 -0.66 8.3 -1 10 C-6.94 10.495 -6.94 10.495 -13 11 C-12.01 10.67 -11.02 10.34 -10 10 C-10 8.68 -10 7.36 -10 6 C-12.31 5.67 -14.62 5.34 -17 5 C-16.67 4.01 -16.34 3.02 -16 2 C-10.50754063 0.16918021 -5.75908058 -0.20568145 0 0 Z " fill="#5D9DB7" transform="translate(124,136)"/>
<path d="M0 0 C5.4 2.4 5.4 2.4 7 4 C7.04092937 6.33297433 7.04241723 8.66705225 7 11 C6.34 10.34 5.68 9.68 5 9 C5 8.01 5 7.02 5 6 C4.67 6.66 4.34 7.32 4 8 C-6.55808656 8.55353075 -6.55808656 8.55353075 -11 5 C-8.64313888 -1.5655417 -6.72011304 -1.34402261 0 0 Z " fill="#5E5A92" transform="translate(136,259)"/>
<path d="M0 0 C0.721875 0.00257813 1.44375 0.00515625 2.1875 0.0078125 C2.909375 0.00523437 3.63125 0.00265625 4.375 0 C6.1875 0.1328125 6.1875 0.1328125 7.1875 1.1328125 C7.27525605 3.27840077 7.29445219 5.42685671 7.28515625 7.57421875 C7.28193359 8.87939453 7.27871094 10.18457031 7.27539062 11.52929688 C7.26703401 12.9179694 7.25856905 14.30664127 7.25 15.6953125 C7.24498666 17.08788906 7.24042347 18.48046731 7.23632812 19.87304688 C7.22449434 23.2930112 7.2080088 26.71289094 7.1875 30.1328125 C6.8575 30.1328125 6.5275 30.1328125 6.1875 30.1328125 C6.1875 20.8928125 6.1875 11.6528125 6.1875 2.1328125 C5.1975 2.1328125 4.2075 2.1328125 3.1875 2.1328125 C3.1875 7.0828125 3.1875 12.0328125 3.1875 17.1328125 C1.8675 17.1328125 0.5475 17.1328125 -0.8125 17.1328125 C-0.8125 15.8128125 -0.8125 14.4928125 -0.8125 13.1328125 C-0.1525 13.1328125 0.5075 13.1328125 1.1875 13.1328125 C1.1875 9.5028125 1.1875 5.8728125 1.1875 2.1328125 C0.5275 2.1328125 -0.1325 2.1328125 -0.8125 2.1328125 C-0.8125 5.4328125 -0.8125 8.7328125 -0.8125 12.1328125 C-4.7725 12.1328125 -8.7325 12.1328125 -12.8125 12.1328125 C-12.8125 11.8028125 -12.8125 11.4728125 -12.8125 11.1328125 C-9.5125 11.1328125 -6.2125 11.1328125 -2.8125 11.1328125 C-2.833125 9.5034375 -2.85375 7.8740625 -2.875 6.1953125 C-2.89636068 4.50781909 -2.88455511 2.81890216 -2.8125 1.1328125 C-1.8125 0.1328125 -1.8125 0.1328125 0 0 Z " fill="#9796C3" transform="translate(169.8125,246.8671875)"/>
<path d="M0 0 C3.00021487 0.14214728 6.00011789 0.28861696 9 0.4375 C9.83917969 0.47681641 10.67835938 0.51613281 11.54296875 0.55664062 C16.74013458 0.81851332 21.84457153 1.2899352 27 2 C27 2.33 27 2.66 27 3 C13.66734734 5.48049352 1.30855262 5.72995951 -12 3 C-12 2.67 -12 2.34 -12 2 C-8.04 2 -4.08 2 0 2 C0 1.34 0 0.68 0 0 Z " fill="#7B7FA9" transform="translate(265,213)"/>
<path d="M0 0 C-0.2443597 3.29885597 -1.22885893 4.22885893 -3.625 6.625 C-6.83236492 9.15388388 -10.05516582 9.97726521 -14 11 C-15.34275169 11.98731742 -16.67732273 12.98594743 -18 14 C-20.75 14.6875 -20.75 14.6875 -23 15 C-19.29825628 8.02778367 -12.77739993 3.86968718 -5.5 1.0625 C-2 0 -2 0 0 0 Z " fill="#7AC7C9" transform="translate(125,99)"/>
<path d="M0 0 C2.5 1.375 2.5 1.375 5 3 C5 3.66 5 4.32 5 5 C6.32 5.33 7.64 5.66 9 6 C9.33 5.01 9.66 4.02 10 3 C14.11844576 8.57737857 15.82316211 13.05509386 16 20 C11.95613324 17.05900599 8.86131975 13.67873944 5.6484375 9.890625 C3.94385572 7.86684475 3.94385572 7.86684475 1.5625 5.75 C0 4 0 4 0 0 Z " fill="#82B4BD" transform="translate(200,131)"/>
<path d="M0 0 C0.66 0 1.32 0 2 0 C2 8.91 2 17.82 2 27 C3.32 27 4.64 27 6 27 C6 21.72 6 16.44 6 11 C6.66 11 7.32 11 8 11 C8 16.94 8 22.88 8 29 C5.36 29 2.72 29 0 29 C0 19.43 0 9.86 0 0 Z " fill="#595691" transform="translate(243,249)"/>
<path d="M0 0 C-0.29539188 3.54470259 -0.77626519 4.78215295 -3.375 7.3125 C-6 9 -6 9 -9 9 C-9.33 10.65 -9.66 12.3 -10 14 C-10.928125 14.12375 -10.928125 14.12375 -11.875 14.25 C-14.18437567 14.81258459 -14.18437567 14.81258459 -15.25 17.0625 C-15.4975 17.701875 -15.745 18.34125 -16 19 C-16.66 18.67 -17.32 18.34 -18 18 C-18 18.99 -18 19.98 -18 21 C-18.99 21 -19.98 21 -21 21 C-21.33 20.01 -21.66 19.02 -22 18 C-4.49240122 0 -4.49240122 0 0 0 Z " fill="#7390B2" transform="translate(238,140)"/>
<path d="M0 0 C8.43461538 -0.49615385 8.43461538 -0.49615385 11.296875 2.015625 C11.85890625 2.67046875 12.4209375 3.3253125 13 4 C11.58994275 5.15395711 10.17166542 6.29787466 8.75 7.4375 C7.56664063 8.39462891 7.56664063 8.39462891 6.359375 9.37109375 C4 11 4 11 0 12 C0 8.04 0 4.08 0 0 Z " fill="#535D92" transform="translate(86,139)"/>
<path d="M0 0 C0.33 0 0.66 0 1 0 C2.37681259 6.36775821 3.08150964 13.75547107 1 20 C-1.31 19.67 -3.62 19.34 -6 19 C-6.33 19.66 -6.66 20.32 -7 21 C-7.33 19.68 -7.66 18.36 -8 17 C-7.01 17 -6.02 17 -5 17 C-4.67 16.01 -4.34 15.02 -4 14 C-3.34 14 -2.68 14 -2 14 C-2 13.34 -2 12.68 -2 12 C-4.97 11.505 -4.97 11.505 -8 11 C-7.67 8.36 -7.34 5.72 -7 3 C-4.87961365 5.61514317 -2.86908256 8.19637616 -1 11 C-0.67 7.37 -0.34 3.74 0 0 Z " fill="#8F8DB7" transform="translate(261,248)"/>
<path d="M0 0 C2.31 0 4.62 0 7 0 C7 0.99 7 1.98 7 3 C6.30970703 3.67482422 6.30970703 3.67482422 5.60546875 4.36328125 C3.53151736 6.47760152 3.08680607 8.34837773 2.3125 11.1875 C2.06113281 12.08855469 1.80976563 12.98960937 1.55078125 13.91796875 C1.27814453 14.94857422 1.27814453 14.94857422 1 16 C-0.98 16 -2.96 16 -5 16 C-5 13.69 -5 11.38 -5 9 C-3.35 8.67 -1.7 8.34 0 8 C0 5.36 0 2.72 0 0 Z " fill="#57549E" transform="translate(27,260)"/>
<path d="M0 0 C5.14466347 0.0833819 8.4716575 1.81305527 12.875 4.375 C12.1875 6.8125 12.1875 6.8125 10.875 9.375 C7.06560412 10.85643173 3.80303595 10.19714706 -0.125 9.375 C-0.125 8.715 -0.125 8.055 -0.125 7.375 C2.375 5.75 2.375 5.75 4.875 4.375 C1.245 3.715 -2.385 3.055 -6.125 2.375 C-3.77479502 0.02479502 -3.20590378 0.05585198 0 0 Z " fill="#8684AE" transform="translate(209.125,245.625)"/>
<path d="M0 0 C0.94423828 -0.00322266 1.88847656 -0.00644531 2.86132812 -0.00976562 C9.79482887 0.04482887 9.79482887 0.04482887 12.0625 2.3125 C10.7425 2.3125 9.4225 2.3125 8.0625 2.3125 C8.0625 2.9725 8.0625 3.6325 8.0625 4.3125 C7.02351563 4.30089844 5.98453125 4.28929688 4.9140625 4.27734375 C-2.04946988 4.22384884 -8.90265635 4.20857683 -15.82421875 5.09375 C-18.20692037 5.34038825 -20.54376451 5.34603745 -22.9375 5.3125 C-15.74844981 0.51979987 -8.4656972 -0.14872975 0 0 Z " fill="#8081B1" transform="translate(288.9375,118.6875)"/>
<path d="M0 0 C0.99 0 1.98 0 3 0 C3 0.99 3 1.98 3 3 C7.62 3 12.24 3 17 3 C17 3.66 17 4.32 17 5 C16.01 5 15.02 5 14 5 C14.33 5.99 14.66 6.98 15 8 C14 9 14 9 11.05859375 9.09765625 C9.26615234 9.08025391 9.26615234 9.08025391 7.4375 9.0625 C5.64119141 9.04896484 5.64119141 9.04896484 3.80859375 9.03515625 C2.88175781 9.02355469 1.95492188 9.01195312 1 9 C0.67 6.03 0.34 3.06 0 0 Z " fill="#575495" transform="translate(284,269)"/>
<path d="M0 0 C1.35931641 -0.01836914 1.35931641 -0.01836914 2.74609375 -0.03710938 C4.05126953 -0.04000977 4.05126953 -0.04000977 5.3828125 -0.04296875 C6.17316895 -0.04707764 6.96352539 -0.05118652 7.77783203 -0.05541992 C9.875 0.1875 9.875 0.1875 12.875 2.1875 C11.225 3.1775 9.575 4.1675 7.875 5.1875 C7.875 4.1975 7.875 3.2075 7.875 2.1875 C7.01519531 2.331875 6.15539062 2.47625 5.26953125 2.625 C-2.9622979 3.91767546 -10.78211697 4.43695497 -19.125 4.1875 C-13.43308394 -0.66116924 -7.12165122 0.00510879 0 0 Z " fill="#8ACDCE" transform="translate(145.125,95.8125)"/>
<path d="M0 0 C1.98 0 3.96 0 6 0 C6.33 2.31 6.66 4.62 7 7 C7.99 7 8.98 7 10 7 C10.33 8.65 10.66 10.3 11 12 C8.69 12.33 6.38 12.66 4 13 C4 12.01 4 11.02 4 10 C1.03 9.505 1.03 9.505 -2 9 C-2 8.01 -2 7.02 -2 6 C-0.68 5.34 0.64 4.68 2 4 C2 3.34 2 2.68 2 2 C1.34 2 0.68 2 0 2 C0 1.34 0 0.68 0 0 Z " fill="#56539A" transform="translate(99,249)"/>
<path d="M0 0 C2.97 0 5.94 0 9 0 C9 10.23 9 20.46 9 31 C8.67 31 8.34 31 8 31 C8 21.76 8 12.52 8 3 C6.02 3 4.04 3 2 3 C1.34 9.6 0.68 16.2 0 23 C-0.33 23 -0.66 23 -1 23 C-1.02887512 19.35418313 -1.04675585 15.70839537 -1.0625 12.0625 C-1.07087891 11.02158203 -1.07925781 9.98066406 -1.08789062 8.90820312 C-1.09272461 7.42416992 -1.09272461 7.42416992 -1.09765625 5.91015625 C-1.10289307 4.99371338 -1.10812988 4.07727051 -1.11352539 3.13305664 C-1 1 -1 1 0 0 Z " fill="#A19FBA" transform="translate(43,247)"/>
<path d="M0 0 C-0.66 1.65 -1.32 3.3 -2 5 C-2.96421875 5.06058594 -3.9284375 5.12117187 -4.921875 5.18359375 C-6.18515625 5.26738281 -7.4484375 5.35117188 -8.75 5.4375 C-10.00296875 5.51871094 -11.2559375 5.59992188 -12.546875 5.68359375 C-15.18317553 5.92515522 -17.48037294 6.24283934 -20 7 C-20.33 6.01 -20.66 5.02 -21 4 C-19.17362195 1.52901793 -18.03744247 1.00858057 -15 0.3125 C-10.02157491 -0.22281453 -4.99923476 -0.08136187 0 0 Z " fill="#5F639C" transform="translate(282,123)"/>
<path d="M0 0 C3.41477085 1.70738543 3.95390938 5.13854085 5.171875 8.6015625 C6.64349561 14.64076029 6.64986947 20.8337967 6 27 C5.34 27.99 4.68 28.98 4 30 C4 25.38 4 20.76 4 16 C2.68 16 1.36 16 0 16 C-0.19672365 14.27185839 -0.38196799 12.54240803 -0.5625 10.8125 C-0.71912109 9.36810547 -0.71912109 9.36810547 -0.87890625 7.89453125 C-0.99758751 5.05766623 -0.67765639 2.74576329 0 0 Z " fill="#8787AD" transform="translate(332,142)"/>
<path d="M0 0 C0.5745952 3.73486879 1 7.21293268 1 11 C0.34 11.66 -0.32 12.32 -1 13 C-2.36919284 11.59785066 -3.71998709 10.17771527 -5.0625 8.75 C-5.81660156 7.96109375 -6.57070312 7.1721875 -7.34765625 6.359375 C-9 4 -9 4 -8.87109375 1.765625 C-6.9040003 -2.22148818 -3.72060692 -0.72794483 0 0 Z " fill="#68BCC3" transform="translate(105,177)"/>
<path d="M0 0 C0.66 0 1.32 0 2 0 C2.33 2.97 2.66 5.94 3 9 C3.99 8.34 4.98 7.68 6 7 C6 10.96 6 14.92 6 19 C4.02 19 2.04 19 0 19 C0 12.73 0 6.46 0 0 Z " fill="#504C84" transform="translate(150,259)"/>
<path d="M0 0 C0.66 0 1.32 0 2 0 C2 9.57 2 19.14 2 29 C-0.31 29 -2.62 29 -5 29 C-5 25.04 -5 21.08 -5 17 C-4.67 17 -4.34 17 -4 17 C-4 20.3 -4 23.6 -4 27 C-2.68 27 -1.36 27 0 27 C0 18.09 0 9.18 0 0 Z " fill="#57538C" transform="translate(174,249)"/>
<path d="M0 0 C-0.22652499 3.17134992 -1.0607744 4.05609944 -3.4375 6.25 C-8.09957107 8.54014017 -11.90363007 8.36258758 -17 8 C-12.2452644 2.50233697 -7.34527203 0 0 0 Z " fill="#636BA1" transform="translate(272,150)"/>
<path d="M0 0 C1.32 0 2.64 0 4 0 C4.33 0.99 4.66 1.98 5 3 C4.34 3 3.68 3 3 3 C3.99 6.63 4.98 10.26 6 14 C7.32 14 8.64 14 10 14 C10.66 15.65 11.32 17.3 12 19 C9.8125 19.4375 9.8125 19.4375 7 19 C2.27546174 14.49021348 0.14944929 8.51205835 -0.125 2.0625 C-0.08375 1.381875 -0.0425 0.70125 0 0 Z " fill="#59B7C6" transform="translate(142,187)"/>
<path d="M0 0 C0 2.67884659 -0.11409459 4.50335747 -1 7 C-7.03510893 11.02340595 -14.96682688 10.12971016 -22 10 C-22 9.34 -22 8.68 -22 8 C-21.39414063 7.90203125 -20.78828125 7.8040625 -20.1640625 7.703125 C-9.1952276 5.77928692 -9.1952276 5.77928692 0 0 Z " fill="#85C1C7" transform="translate(190,178)"/>
<path d="M0 0 C0.66 0.99 1.32 1.98 2 3 C1.01 3.33 0.02 3.66 -1 4 C-1.33 6.64 -1.66 9.28 -2 12 C-2.99 12 -3.98 12 -5 12 C-5 12.99 -5 13.98 -5 15 C-5.66 15 -6.32 15 -7 15 C-7 16.65 -7 18.3 -7 20 C-7.33 20 -7.66 20 -8 20 C-8.3221077 13.96346301 -8.56806924 9.16754855 -5 4 C-2.3125 1.625 -2.3125 1.625 0 0 Z " fill="#8281AE" transform="translate(282,247)"/>
<path d="M0 0 C3.37234971 0.28102914 4.78639739 0.80371652 7.3125 3.125 C9.38044558 6.64816654 9.31523361 8.98077152 9 13 C6.5 11.625 6.5 11.625 4 10 C4 9.34 4 8.68 4 8 C2.68 7.34 1.36 6.68 0 6 C0 4.02 0 2.04 0 0 Z " fill="#585696" transform="translate(323,134)"/>
<path d="M0 0 C2.60334924 2.71182212 2.99456691 3.89133813 3.1875 7.75 C3.125625 8.8225 3.06375 9.895 3 11 C0.36 11 -2.28 11 -5 11 C-5.3125 7.75 -5.3125 7.75 -5 4 C-2.5 1.5625 -2.5 1.5625 0 0 Z " fill="#6B669D" transform="translate(367,267)"/>
<path d="M0 0 C2.31243792 -0.02685412 4.6249627 -0.04632841 6.9375 -0.0625 C8.22527344 -0.07410156 9.51304687 -0.08570313 10.83984375 -0.09765625 C14 0 14 0 15 1 C15.54078331 6.28371889 15.87102911 10.61179736 13 15.1875 C12.01 16.0846875 12.01 16.0846875 11 17 C10.01 16.67 9.02 16.34 8 16 C8 15.34 8 14.68 8 14 C8.99 13.67 9.98 13.34 11 13 C11.66 9.37 12.32 5.74 13 2 C11.411875 2.04125 9.82375 2.0825 8.1875 2.125 C4.3446021 2.22481553 3.31371 2.20914 0 0 Z " fill="#72709E" transform="translate(290,260)"/>
<path d="M0 0 C7.26 0 14.52 0 22 0 C22.33 1.65 22.66 3.3 23 5 C20.29060578 4.71638858 17.58277339 4.4233895 14.875 4.125 C14.11445313 4.04636719 13.35390625 3.96773437 12.5703125 3.88671875 C8.14040279 3.39026335 4.19788029 2.59599921 0 1 C0 0.67 0 0.34 0 0 Z " fill="#555E99" transform="translate(258,193)"/>
<path d="M0 0 C2.475 0.495 2.475 0.495 5 1 C5 1.66 5 2.32 5 3 C9.455 2.505 9.455 2.505 14 2 C14 2.66 14 3.32 14 4 C15.32 4.33 16.64 4.66 18 5 C18 5.66 18 6.32 18 7 C11.18401613 7.33278764 6.07877934 7.24201565 0 4 C0 2.68 0 1.36 0 0 Z " fill="#524F96" transform="translate(122,270)"/>
<path d="M0 0 C2.33294775 -0.04241723 4.66702567 -0.04092937 7 0 C8.87824891 1.87824891 8.39102397 5.03935276 8.5625 7.5625 C8.64628906 8.76003906 8.73007812 9.95757812 8.81640625 11.19140625 C8.87699219 12.11824219 8.93757813 13.04507812 9 14 C8.34 13.34 7.68 12.68 7 12 C7 11.01 7 10.02 7 9 C5.35 9 3.7 9 2 9 C2 8.34 2 7.68 2 7 C1.34 6.67 0.68 6.34 0 6 C0.66 4.68 1.32 3.36 2 2 C1.34 1.34 0.68 0.68 0 0 Z " fill="#48477B" transform="translate(13,248)"/>
<path d="M0 0 C2.31 0.33 4.62 0.66 7 1 C7.33 2.65 7.66 4.3 8 6 C9.65 6 11.3 6 13 6 C13 4.35 13 2.7 13 1 C17 5.625 17 5.625 17 9 C13.86100195 9.52316634 11.1274839 9.6505552 8 9 C4.87483652 6.7061608 2.37363478 4.05920777 0 1 C0 0.67 0 0.34 0 0 Z " fill="#716DA1" transform="translate(68,269)"/>
<path d="M0 0 C3.63 0 7.26 0 11 0 C11 0.33 11 0.66 11 1 C8.03 1 5.06 1 2 1 C2 1.66 2 2.32 2 3 C2.66 3 3.32 3 4 3 C4 4.32 4 5.64 4 7 C4.99 7 5.98 7 7 7 C7 10.63 7 14.26 7 18 C6.01 18 5.02 18 4 18 C4 15.36 4 12.72 4 10 C3.34 9.67 2.68 9.34 2 9 C2 7.68 2 6.36 2 5 C0.02 5.99 0.02 5.99 -2 7 C-1.34 4.69 -0.68 2.38 0 0 Z " fill="#8482B3" transform="translate(350,247)"/>
<path d="M0 0 C0.33 0 0.66 0 1 0 C1.30769231 8 1.30769231 8 -1 11 C-3.078125 11.6015625 -3.078125 11.6015625 -5 12 C-6.00893131 10.90398831 -7.00688225 9.79786082 -8 8.6875 C-8.556875 8.07261719 -9.11375 7.45773437 -9.6875 6.82421875 C-11 5 -11 5 -11 2 C-5.25 3.75 -5.25 3.75 -3 6 C-2.01 4.02 -1.02 2.04 0 0 Z " fill="#615F9A" transform="translate(266,265)"/>
<path d="M0 0 C6.13053511 -0.32712342 10.62669111 -0.39366878 16 3 C15.67 5.31 15.34 7.62 15 10 C13.35 10.33 11.7 10.66 10 11 C10.020625 10.0925 10.04125 9.185 10.0625 8.25 C10.11818511 4.83853378 10.11818511 4.83853378 9 1 C6.03 1 3.06 1 0 1 C0 0.67 0 0.34 0 0 Z " fill="#76739F" transform="translate(126,246)"/>
<path d="M0 0 C3.63 0.33 7.26 0.66 11 1 C10.67 2.65 10.34 4.3 10 6 C5.38 6 0.76 6 -4 6 C-4 5.34 -4 4.68 -4 4 C-2.68 4 -1.36 4 0 4 C0 2.68 0 1.36 0 0 Z " fill="#5266A0" transform="translate(255,209)"/>
<path d="M0 0 C0.33 0 0.66 0 1 0 C1 3.96 1 7.92 1 12 C2.98 11.34 4.96 10.68 7 10 C6.34 11.65 5.68 13.3 5 15 C3.68 14.67 2.36 14.34 1 14 C1 14.66 1 15.32 1 16 C0.34 16 -0.32 16 -1 16 C-1 17.32 -1 18.64 -1 20 C-0.34 20.33 0.32 20.66 1 21 C-1.31 21.33 -3.62 21.66 -6 22 C-6 21.34 -6 20.68 -6 20 C-5.34 20 -4.68 20 -4 20 C-4.061875 19.05125 -4.12375 18.1025 -4.1875 17.125 C-4.125625 16.09375 -4.06375 15.0625 -4 14 C-3.01 13.34 -2.02 12.68 -1 12 C-0.41518879 9.11404054 -0.41518879 9.11404054 -0.3125 5.875 C-0.24675781 4.77929688 -0.18101563 3.68359375 -0.11328125 2.5546875 C-0.07589844 1.71164063 -0.03851563 0.86859375 0 0 Z " fill="#62A6B5" transform="translate(85,139)"/>
<path d="M0 0 C0.33 2.31 0.66 4.62 1 7 C-0.6875 7.75 -0.6875 7.75 -3 8 C-5.75 6.25 -5.75 6.25 -8 4 C-8 3.01 -8 2.02 -8 1 C-9.65 1 -11.3 1 -13 1 C-13 0.67 -13 0.34 -13 0 C-4.57142857 -1.28571429 -4.57142857 -1.28571429 0 0 Z " fill="#5E8EB2" transform="translate(226,194)"/>
<path d="M0 0 C2.475 0.495 2.475 0.495 5 1 C5 1.66 5 2.32 5 3 C7.31 3.33 9.62 3.66 12 4 C12 4.99 12 5.98 12 7 C12.66 7 13.32 7 14 7 C14 5.35 14 3.7 14 2 C14.33 2 14.66 2 15 2 C15.125 4.875 15.125 4.875 15 8 C14.34 8.66 13.68 9.32 13 10 C12.46375 9.690625 11.9275 9.38125 11.375 9.0625 C8.6015043 7.82172561 5.99957163 7.4090325 3 7 C3.33 6.01 3.66 5.02 4 4 C2.68 3.67 1.36 3.34 0 3 C0 2.01 0 1.02 0 0 Z " fill="#7573A4" transform="translate(209,264)"/>
<path d="M0 0 C1.32 0.33 2.64 0.66 4 1 C3.01 2.485 3.01 2.485 2 4 C1.75944532 6.05709596 1.75944532 6.05709596 1.875 8.1875 C1.91625 9.445625 1.9575 10.70375 2 12 C-0.31 11.67 -2.62 11.34 -5 11 C-4.67 8.69 -4.34 6.38 -4 4 C-3.01 4 -2.02 4 -1 4 C-0.67 2.68 -0.34 1.36 0 0 Z " fill="#4E4B8D" transform="translate(281,255)"/>
<path d="M0 0 C3.63 0.33 7.26 0.66 11 1 C11 1.99 11 2.98 11 4 C9.35 4 7.7 4 6 4 C6 5.32 6 6.64 6 8 C3.69 8.33 1.38 8.66 -1 9 C-1 5.42424104 0.08840607 3.94704065 2 1 C1.34 0.67 0.68 0.34 0 0 Z " fill="#5D94B3" transform="translate(190,175)"/>
<path d="M0 0 C3.95820859 0.56545837 6.6659053 1.80902348 10 4 C9.67 4.99 9.34 5.98 9 7 C2.375 8.125 2.375 8.125 -1 7 C-0.67 4.69 -0.34 2.38 0 0 Z " fill="#51BCC5" transform="translate(163,102)"/>
<path d="M0 0 C2.97 0.33 5.94 0.66 9 1 C7.14285714 8.57142857 7.14285714 8.57142857 4 11 C4 9.68 4 8.36 4 7 C2.68 6.67 1.36 6.34 0 6 C0 4.02 0 2.04 0 0 Z " fill="#5DB9BF" transform="translate(106,122)"/>
<path d="M0 0 C0 0.33 0 0.66 0 1 C-16.70842825 3.29612756 -16.70842825 3.29612756 -25 3 C-25 2.34 -25 1.68 -25 1 C-16.44773237 -1.4348809 -8.74184675 -0.86252888 0 0 Z " fill="#699AAA" transform="translate(131,147)"/>
<path d="M0 0 C2.72426311 2.35277269 3.8141763 4.62496331 5 8 C5.66 8 6.32 8 7 8 C7 9.98 7 11.96 7 14 C5.35 14 3.7 14 2 14 C0.66416101 9.15758367 -0.25328119 5.06562383 0 0 Z " fill="#5B569E" transform="translate(74,261)"/>
<path d="M0 0 C0.99 0 1.98 0 3 0 C3.33 0.66 3.66 1.32 4 2 C6.52733235 2.65555119 6.52733235 2.65555119 9 3 C9 3.66 9 4.32 9 5 C7.68 5.33 6.36 5.66 5 6 C7.31 6.33 9.62 6.66 12 7 C12 7.33 12 7.66 12 8 C5.565 8.495 5.565 8.495 -1 9 C-1.125 2.25 -1.125 2.25 0 0 Z " fill="#4F4B91" transform="translate(95,262)"/>
<path d="M0 0 C2 2 2 2 2.125 5.625 C2.08375 6.73875 2.0425 7.8525 2 9 C2.66 9.33 3.32 9.66 4 10 C0.55384615 14.8 0.55384615 14.8 -2.25 15.8125 C-2.8275 15.874375 -3.405 15.93625 -4 16 C-3.27275406 10.47293087 -1.66554027 5.30039859 0 0 Z " fill="#605E93" transform="translate(308,164)"/>
<path d="M0 0 C1.65 0 3.3 0 5 0 C4.01 0.33 3.02 0.66 2 1 C3.98 4.96 5.96 8.92 8 13 C5.69 13.33 3.38 13.66 1 14 C0.67 9.38 0.34 4.76 0 0 Z " fill="#6EBEC2" transform="translate(105,150)"/>
<path d="M0 0 C0.99 0 1.98 0 3 0 C2.67 2.31 2.34 4.62 2 7 C-1.1875 8.1875 -1.1875 8.1875 -5 9 C-7.9375 7.625 -7.9375 7.625 -10 6 C-8 4 -8 4 -5.4375 3.8125 C-3 4 -3 4 -2 5 C-1.34 3.35 -0.68 1.7 0 0 Z " fill="#4E75A2" transform="translate(105,134)"/>
<path d="M0 0 C0.33 0.66 0.66 1.32 1 2 C4.02934491 2.65772428 4.02934491 2.65772428 7 3 C7 4.32 7 5.64 7 7 C0.25 8.125 0.25 8.125 -2 7 C-2 5.68 -2 4.36 -2 3 C-2.66 3 -3.32 3 -4 3 C-4 2.34 -4 1.68 -4 1 C-2.68 0.67 -1.36 0.34 0 0 Z " fill="#565799" transform="translate(301,120)"/>
<path d="M0 0 C0.25 2.3125 0.25 2.3125 0 5 C-1.8125 6.8125 -1.8125 6.8125 -4 8 C-4.99 8 -5.98 8 -7 8 C-7 8.66 -7 9.32 -7 10 C-7.66 10 -8.32 10 -9 10 C-9.33 8.35 -9.66 6.7 -10 5 C-8.71186658 4.16121545 -7.41936744 3.32913217 -6.125 2.5 C-5.40570313 2.0359375 -4.68640625 1.571875 -3.9453125 1.09375 C-2 0 -2 0 0 0 Z " fill="#6F82AF" transform="translate(252,131)"/>
<path d="M0 0 C3.3 0 6.6 0 10 0 C10 0.66 10 1.32 10 2 C8.35 2 6.7 2 5 2 C5.99 2.99 6.98 3.98 8 5 C7.05125 5.2475 6.1025 5.495 5.125 5.75 C1.91306809 6.6857077 1.91306809 6.6857077 0.625 9.125 C0.41875 9.74375 0.2125 10.3625 0 11 C-0.99 10.34 -1.98 9.68 -3 9 C-2.01 9 -1.02 9 0 9 C0 6.03 0 3.06 0 0 Z " fill="#7F7CAF" transform="translate(125,253)"/>
<path d="M0 0 C2.05078125 0.03255208 4.1015625 0.06510417 6.15234375 0.09765625 C6.15234375 3.72765625 6.15234375 7.35765625 6.15234375 11.09765625 C5.82234375 11.09765625 5.49234375 11.09765625 5.15234375 11.09765625 C5.15234375 7.79765625 5.15234375 4.49765625 5.15234375 1.09765625 C3.83234375 2.08765625 2.51234375 3.07765625 1.15234375 4.09765625 C0.16234375 4.09765625 -0.82765625 4.09765625 -1.84765625 4.09765625 C-1.84765625 9.70765625 -1.84765625 15.31765625 -1.84765625 21.09765625 C-2.17765625 21.09765625 -2.50765625 21.09765625 -2.84765625 21.09765625 C-2.87653771 17.78517438 -2.89441424 14.47272458 -2.91015625 11.16015625 C-2.91853516 10.21462891 -2.92691406 9.26910156 -2.93554688 8.29492188 C-2.93876953 7.39580078 -2.94199219 6.49667969 -2.9453125 5.5703125 C-2.95054932 4.73765869 -2.95578613 3.90500488 -2.96118164 3.04711914 C-2.81098759 0.46798052 -2.58587118 0.13667395 0 0 Z " fill="#9996BB" transform="translate(150.84765625,246.90234375)"/>
<path d="M0 0 C1.875 0.1875 1.875 0.1875 4 1 C6.09242143 4.6617375 6.19324053 7.84532871 6 12 C3.09197539 9.78071806 1.04687238 8.07030857 -1 5 C-0.625 2.3125 -0.625 2.3125 0 0 Z " fill="#6D90A3" transform="translate(210,139)"/>
<path d="M0 0 C1.81242052 -0.02687279 3.62495233 -0.04633715 5.4375 -0.0625 C6.44683594 -0.07410156 7.45617187 -0.08570313 8.49609375 -0.09765625 C11 0 11 0 12 1 C12.04063832 2.66617115 12.042721 4.33388095 12 6 C13.65 6 15.3 6 17 6 C17 4.35 17 2.7 17 1 C17.66 1 18.32 1 19 1 C19 3.31 19 5.62 19 8 C16.36 8 13.72 8 11 8 C10.67 7.030625 10.34 6.06125 10 5.0625 C8.39253557 1.89278582 8.39253557 1.89278582 6.01953125 1.37890625 C4.02222356 1.14912749 2.00940186 1.06588203 0 1 C0 0.67 0 0.34 0 0 Z " fill="#7776A2" transform="translate(97,270)"/>
<path d="M0 0 C1.11375 0.495 1.11375 0.495 2.25 1 C5.13883312 2.22782871 5.13883312 2.22782871 9 2 C9.1875 4.8125 9.1875 4.8125 9 8 C7.48828125 9.69921875 7.48828125 9.69921875 6 11 C4.9944239 9.54550599 3.99569565 8.08627557 3 6.625 C2.443125 5.81289062 1.88625 5.00078125 1.3125 4.1640625 C0 2 0 2 0 0 Z " fill="#72C9CB" transform="translate(88,166)"/>
<path d="M0 0 C3.25 -0.375 3.25 -0.375 7 0 C9.4375 3 9.4375 3 11 6 C9.741875 6.04125 8.48375 6.0825 7.1875 6.125 C6.47980469 6.14820313 5.77210938 6.17140625 5.04296875 6.1953125 C3 6 3 6 0 4 C0 2.68 0 1.36 0 0 Z " fill="#52548A" transform="translate(145,206)"/>
<path d="M0 0 C2.75026417 -0.05404449 5.49946203 -0.09369306 8.25 -0.125 C9.02730469 -0.14175781 9.80460937 -0.15851563 10.60546875 -0.17578125 C17.72431144 -0.23662606 17.72431144 -0.23662606 21 2 C21 2.99 21 3.98 21 5 C20.01 5 19.02 5 18 5 C18 4.34 18 3.68 18 3 C12.06 2.67 6.12 2.34 0 2 C0 1.34 0 0.68 0 0 Z " fill="#4E4E8C" transform="translate(286,144)"/>
<path d="M0 0 C2.31 0.33 4.62 0.66 7 1 C7 3 7 3 5.75 4.625 C4 6 4 6 0 6 C0 9.63 0 13.26 0 17 C-0.33 17 -0.66 17 -1 17 C-1.02691685 14.54159395 -1.04679802 12.08348118 -1.0625 9.625 C-1.07087891 8.92632812 -1.07925781 8.22765625 -1.08789062 7.5078125 C-1.11328125 2.2265625 -1.11328125 2.2265625 0 0 Z " fill="#8A88B3" transform="translate(252,259)"/>
<path d="M0 0 C0.66 0 1.32 0 2 0 C2 1.32 2 2.64 2 4 C2.99 4.33 3.98 4.66 5 5 C4.67 7.64 4.34 10.28 4 13 C2 11 2 11 1.875 8.375 C1.91625 7.59125 1.9575 6.8075 2 6 C0.02 6.66 -1.96 7.32 -4 8 C-2.25 2.25 -2.25 2.25 0 0 Z " fill="#625F97" transform="translate(350,252)"/>
<path d="M0 0 C0.33 0 0.66 0 1 0 C1 1.65 1 3.3 1 5 C0.34 5 -0.32 5 -1 5 C-1 5.66 -1 6.32 -1 7 C-5.62 7 -10.24 7 -15 7 C-15 6.34 -15 5.68 -15 5 C-9.87080814 2.89571616 -5.4389165 2.78244334 0 3 C0 2.01 0 1.02 0 0 Z " fill="#9995BA" transform="translate(301,249)"/>
<path d="M0 0 C3.07443606 -0.35474262 5.93912465 -0.52066436 9 0 C11.625 2.8125 11.625 2.8125 13 6 C12.67 6.99 12.34 7.98 12 9 C11.01 9 10.02 9 9 9 C8.67 6.69 8.34 4.38 8 2 C5.69 2 3.38 2 1 2 C1 2.66 1 3.32 1 4 C0.34 4 -0.32 4 -1 4 C-0.67 2.68 -0.34 1.36 0 0 Z " fill="#76749D" transform="translate(97,247)"/>
<path d="M0 0 C0.99 0.33 1.98 0.66 3 1 C3.34833144 5.87664009 2.41685712 8.77050005 0 13 C-0.66 13 -1.32 13 -2 13 C-2.05416188 11.39620659 -2.09286638 9.79188594 -2.125 8.1875 C-2.14820312 7.29417969 -2.17140625 6.40085938 -2.1953125 5.48046875 C-2 3 -2 3 0 0 Z " fill="#89C1C2" transform="translate(68,169)"/>
<path d="M0 0 C0.66 0 1.32 0 2 0 C2 5.94 2 11.88 2 18 C-0.31 18 -2.62 18 -5 18 C-5 17.34 -5 16.68 -5 16 C-3.35 16 -1.7 16 0 16 C0 10.72 0 5.44 0 0 Z " fill="#4D4981" transform="translate(249,260)"/>
<path d="M0 0 C2.64 0 5.28 0 8 0 C8.33 0.99 8.66 1.98 9 3 C7.5625 5.1875 7.5625 5.1875 6 7 C5.34 6.34 4.68 5.68 4 5 C2.01178687 4.60235737 0.01055661 4.26224651 -2 4 C-1.34 2.68 -0.68 1.36 0 0 Z " fill="#938FB1" transform="translate(75,246)"/>
<path d="M0 0 C1.98 0 3.96 0 6 0 C5.67 1.32 5.34 2.64 5 4 C7.31 4.33 9.62 4.66 12 5 C12.33 6.32 12.66 7.64 13 9 C7.98491285 7.45941767 3.3852919 5.97068161 -1 3 C-0.67 2.01 -0.34 1.02 0 0 Z " fill="#6982A8" transform="translate(123,200)"/>
<path d="M0 0 C1.65 0 3.3 0 5 0 C5.0270043 1.45823212 5.04639787 2.91660675 5.0625 4.375 C5.07410156 5.18710938 5.08570313 5.99921875 5.09765625 6.8359375 C5 9 5 9 4 11 C3.34 11 2.68 11 2 11 C2 9.68 2 8.36 2 7 C1.34 7 0.68 7 0 7 C0 4.69 0 2.38 0 0 Z " fill="#565294" transform="translate(31,248)"/>
<path d="M0 0 C1.8871875 0.061875 1.8871875 0.061875 3.8125 0.125 C3.8125 1.115 3.8125 2.105 3.8125 3.125 C1.8325 3.125 -0.1475 3.125 -2.1875 3.125 C-2.5175 4.115 -2.8475 5.105 -3.1875 6.125 C-5.25 6.8125 -5.25 6.8125 -7.1875 7.125 C-7.375 4.75 -7.375 4.75 -7.1875 2.125 C-4.09861478 0.06574319 -3.47814073 -0.1140374 0 0 Z " fill="#88AFC1" transform="translate(214.1875,194.875)"/>
<path d="M0 0 C4.56454251 0.54339792 7.9728176 1.79463821 12 4 C11.67 4.99 11.34 5.98 11 7 C7.39915071 7.42362933 5.93996275 6.96714943 2.6875 5.1875 C1.800625 4.465625 0.91375 3.74375 0 3 C0 2.01 0 1.02 0 0 Z " fill="#6A97AE" transform="translate(123,176)"/>
<path d="M0 0 C0.33 0 0.66 0 1 0 C1 1.98 1 3.96 1 6 C1.99 6.33 2.98 6.66 4 7 C3.19152271 8.16945792 2.37810888 9.33550461 1.5625 10.5 C1.11003906 11.1496875 0.65757813 11.799375 0.19140625 12.46875 C-0.20175781 12.9740625 -0.59492187 13.479375 -1 14 C-1.33 14 -1.66 14 -2 14 C-3.75480199 8.91107422 -3.75480199 8.91107422 -4 6 C-2.1875 2.5 -2.1875 2.5 0 0 Z " fill="#84C3C9" transform="translate(73,161)"/>
<path d="M0 0 C5.0302076 0.52537724 10.01885239 1.10594786 15 2 C14.67 3.32 14.34 4.64 14 6 C9.38 5.01 4.76 4.02 0 3 C0 2.01 0 1.02 0 0 Z " fill="#61BBC3" transform="translate(161,109)"/>
<path d="M0 0 C0.66 0.33 1.32 0.66 2 1 C3.04976964 4.14930893 3.10131595 6.38814456 3.0625 9.6875 C3.05347656 10.68136719 3.04445313 11.67523438 3.03515625 12.69921875 C3.02355469 13.45847656 3.01195312 14.21773437 3 15 C2.01 15.33 1.02 15.66 0 16 C-0.82622671 10.39436958 -1.06795656 5.57710648 0 0 Z " fill="#4F4F8A" transform="translate(310,157)"/>
<path d="M0 0 C0.66 0 1.32 0 2 0 C2 0.66 2 1.32 2 2 C5.465 1.505 5.465 1.505 9 1 C6.11658466 5.21422242 3.95696581 6.76075855 -1 8 C-1.04241723 5.66705225 -1.04092937 3.33297433 -1 1 C-0.67 0.67 -0.34 0.34 0 0 Z " fill="#475682" transform="translate(87,143)"/>
<path d="M0 0 C2.475 0.495 2.475 0.495 5 1 C5 4.3 5 7.6 5 11 C3.35 10.67 1.7 10.34 0 10 C0 6.7 0 3.4 0 0 Z " fill="#545090" transform="translate(70,259)"/>
<path d="M0 0 C3.3 0 6.6 0 10 0 C10 0.66 10 1.32 10 2 C11.65 2.33 13.3 2.66 15 3 C14.67 4.32 14.34 5.64 14 7 C9.38 5.02 4.76 3.04 0 1 C0 0.67 0 0.34 0 0 Z " fill="#868EB4" transform="translate(159,157)"/>
<path d="M0 0 C-0.28819649 3.45835793 -0.78965038 4.78380733 -3.25 7.3125 C-6.2009146 9.12328851 -7.61510691 9.38684492 -11 9 C-3.8 0 -3.8 0 0 0 Z " fill="#90A6C0" transform="translate(238,140)"/>
<path d="M0 0 C0.66 0.99 1.32 1.98 2 3 C0.63016497 6.16115776 0.0109362 6.9927092 -3 9 C-3.72965366 11.56282742 -3.72965366 11.56282742 -4 14 C-4.33 14 -4.66 14 -5 14 C-5 12.35 -5 10.7 -5 9 C-8.3 9 -11.6 9 -15 9 C-15 8.67 -15 8.34 -15 8 C-12.03 8 -9.06 8 -6 8 C-6 7.01 -6 6.02 -6 5 C-4.02 5 -2.04 5 0 5 C0 3.35 0 1.7 0 0 Z " fill="#7271A8" transform="translate(366,262)"/>
<path d="M0 0 C0 0.66 0 1.32 0 2 C-1.74440798 2.55941359 -3.49585257 3.09691897 -5.25 3.625 C-6.22453125 3.92664063 -7.1990625 4.22828125 -8.203125 4.5390625 C-11.31678461 5.05220752 -12.41569255 4.71056541 -15 3 C-11.07677056 -0.92322944 -5.25785342 -0.10515707 0 0 Z " fill="#6AAEB9" transform="translate(195,207)"/>
<path d="M0 0 C1.03060547 0.23396484 1.03060547 0.23396484 2.08203125 0.47265625 C2.98308594 0.66730469 3.88414062 0.86195313 4.8125 1.0625 C6.15248047 1.35833984 6.15248047 1.35833984 7.51953125 1.66015625 C10.12630779 2.20349463 10.12630779 2.20349463 13 1 C13 1.66 13 2.32 13 3 C13.66 3 14.32 3 15 3 C15 3.66 15 4.32 15 5 C13.06318839 5.08107583 11.1254066 5.13922475 9.1875 5.1875 C8.10855469 5.22230469 7.02960938 5.25710937 5.91796875 5.29296875 C3 5 3 5 1.11328125 3.61328125 C0 2 0 2 0 0 Z " fill="#65B5C2" transform="translate(153,207)"/>
<path d="M0 0 C2.64 0 5.28 0 8 0 C8.33 0.66 8.66 1.32 9 2 C11.02463255 2.65213292 11.02463255 2.65213292 13 3 C13.33 4.32 13.66 5.64 14 7 C10.27792613 7 8.53604411 5.82035432 5.3125 4 C4.31863281 3.443125 3.32476562 2.88625 2.30078125 2.3125 C1.54152344 1.879375 0.78226563 1.44625 0 1 C0 0.67 0 0.34 0 0 Z " fill="#79B8C0" transform="translate(175,115)"/>
<path d="M0 0 C0.99 0.33 1.98 0.66 3 1 C2.67 1.99 2.34 2.98 2 4 C2.66 4 3.32 4 4 4 C4 4.66 4 5.32 4 6 C0.7 6 -2.6 6 -6 6 C-6.33 4.68 -6.66 3.36 -7 2 C-4.69 2.33 -2.38 2.66 0 3 C0 2.01 0 1.02 0 0 Z " fill="#575795" transform="translate(290,209)"/>
<path d="M0 0 C1.43088528 2.86177057 0.59991697 4.93375773 0 8 C-2.31 8.66 -4.62 9.32 -7 10 C-6.84518205 7.29068581 -6.51827919 5.53415961 -4.59765625 3.5546875 C-3.10228292 2.32320358 -1.5537076 1.1570163 0 0 Z " fill="#688FB0" transform="translate(215,159)"/>
<path d="M0 0 C0.87785156 0.10699219 1.75570312 0.21398437 2.66015625 0.32421875 C3.53542969 0.42347656 4.41070312 0.52273437 5.3125 0.625 C7.72265625 1.01171875 7.72265625 1.01171875 10.72265625 2.01171875 C10.72265625 2.67171875 10.72265625 3.33171875 10.72265625 4.01171875 C7.00498957 5.25094098 5.28376088 4.58190817 1.53515625 3.57421875 C0.44847656 3.28675781 -0.63820312 2.99929687 -1.7578125 2.703125 C-2.58925781 2.47496094 -3.42070312 2.24679688 -4.27734375 2.01171875 C-2.27734375 0.01171875 -2.27734375 0.01171875 0 0 Z " fill="#6F92AD" transform="translate(136.27734375,146.98828125)"/>
<path d="M0 0 C2.31 0.33 4.62 0.66 7 1 C7 2.32 7 3.64 7 5 C7.99 5 8.98 5 10 5 C10 5.99 10 6.98 10 8 C8.02 8 6.04 8 4 8 C3.71125 7.236875 3.4225 6.47375 3.125 5.6875 C2.03730987 2.84970692 2.03730987 2.84970692 0 0 Z " fill="#575995" transform="translate(183,152)"/>
<path d="M0 0 C6.875 3.625 6.875 3.625 8 7 C5.03 7 2.06 7 -1 7 C-0.67 4.69 -0.34 2.38 0 0 Z " fill="#8082AF" transform="translate(318,127)"/>
<path d="M0 0 C1.32 0 2.64 0 4 0 C4 1.32 4 2.64 4 4 C4.99 4.33 5.98 4.66 7 5 C7 5.33 7 5.66 7 6 C5.02 6 3.04 6 1 6 C0.67 5.01 0.34 4.02 0 3 C-2.64 3 -5.28 3 -8 3 C-8 2.67 -8 2.34 -8 2 C-6.865625 1.855625 -5.73125 1.71125 -4.5625 1.5625 C-1.19222799 1.38828522 -1.19222799 1.38828522 0 0 Z " fill="#52B2BE" transform="translate(183,112)"/>
<path d="M0 0 C0.98484375 0.02707031 1.9696875 0.05414063 2.984375 0.08203125 C3.73203125 0.11683594 4.4796875 0.15164062 5.25 0.1875 C5.25 0.8475 5.25 1.5075 5.25 2.1875 C2.36584117 3.62957941 -0.16721528 3.28144887 -3.375 3.25 C-4.56351563 3.24097656 -5.75203125 3.23195313 -6.9765625 3.22265625 C-7.89179687 3.21105469 -8.80703125 3.19945313 -9.75 3.1875 C-6.47698081 0.21840402 -4.36934238 -0.15604794 0 0 Z " fill="#80C7C6" transform="translate(135.75,96.8125)"/>
<path d="M0 0 C2.3828125 0.0234375 2.3828125 0.0234375 5.125 0.375 C6.03507813 0.48585938 6.94515625 0.59671875 7.8828125 0.7109375 C8.93082031 0.85402344 8.93082031 0.85402344 10 1 C10 1.33 10 1.66 10 2 C8.35 2 6.7 2 5 2 C4.67 2.66 4.34 3.32 4 4 C4 3.34 4 2.68 4 2 C3.01 2 2.02 2 1 2 C1.66 4.31 2.32 6.62 3 9 C1.0625 8.3125 1.0625 8.3125 -1 7 C-1.875 4.5 -1.875 4.5 -2 2 C-1.34 1.34 -0.68 0.68 0 0 Z " fill="#7B78A5" transform="translate(200,268)"/>
<path d="M0 0 C3.96 0 7.92 0 12 0 C12 0.66 12 1.32 12 2 C8.7 2 5.4 2 2 2 C2 5.96 2 9.92 2 14 C1.67 14 1.34 14 1 14 C0.67 9.38 0.34 4.76 0 0 Z " fill="#65628E" transform="translate(316,264)"/>
<path d="M0 0 C4.31392226 0.4793247 6.16569547 1.7457985 9 5 C6.69 5.66 4.38 6.32 2 7 C2 6.34 2 5.68 2 5 C1.34 5 0.68 5 0 5 C0 3.35 0 1.7 0 0 Z " fill="#6B69A4" transform="translate(292,208)"/>
<path d="M0 0 C2.31 0 4.62 0 7 0 C6.67 1.32 6.34 2.64 6 4 C1.25 5.125 1.25 5.125 -1 4 C-0.67 2.68 -0.34 1.36 0 0 Z M-4 5 C-3.01 5.495 -3.01 5.495 -2 6 C-2.99 6.495 -2.99 6.495 -4 7 C-4 6.34 -4 5.68 -4 5 Z " fill="#677EAC" transform="translate(154,139)"/>
<path d="M0 0 C2 2 2 2 2.125 4.625 C2.08375 5.40875 2.0425 6.1925 2 7 C3.32 7 4.64 7 6 7 C6 6.34 6 5.68 6 5 C6.66 5 7.32 5 8 5 C7.67 6.32 7.34 7.64 7 9 C4.36 9 1.72 9 -1 9 C-0.67 6.03 -0.34 3.06 0 0 Z " fill="#7573A0" transform="translate(342,269)"/>
<path d="M0 0 C1.98 0.66 3.96 1.32 6 2 C5.24172908 3.17487036 4.46792245 4.33972592 3.6875 5.5 C3.25824219 6.1496875 2.82898438 6.799375 2.38671875 7.46875 C1.70029297 8.22671875 1.70029297 8.22671875 1 9 C0.01 9 -0.98 9 -2 9 C-2.33 8.01 -2.66 7.02 -3 6 C-2.01 6 -1.02 6 0 6 C0 4.02 0 2.04 0 0 Z " fill="#7777AB" transform="translate(322,190)"/>
<path d="M0 0 C-0.25 3.375 -0.25 3.375 -1 7 C-3.0625 8.4375 -3.0625 8.4375 -5 9 C-5.33 6.69 -5.66 4.38 -6 2 C-3 0 -3 0 0 0 Z " fill="#55509A" transform="translate(352,258)"/>
<path d="M0 0 C0 1.65 0 3.3 0 5 C-2.31 5.33 -4.62 5.66 -7 6 C-7 4.35 -7 2.7 -7 1 C-4.53721199 -0.231394 -2.7204945 -0.07159196 0 0 Z " fill="#555198" transform="translate(134,258)"/>
<path d="M0 0 C2.475 0.495 2.475 0.495 5 1 C5.66 4.63 6.32 8.26 7 12 C6.01 11.67 5.02 11.34 4 11 C3.29618843 9.01276732 2.6288189 7.01222047 2 5 C1.34 4.67 0.68 4.34 0 4 C0 2.68 0 1.36 0 0 Z " fill="#4682A3" transform="translate(137,186)"/>
<path d="M0 0 C0.66 0 1.32 0 2 0 C2.33 2.97 2.66 5.94 3 9 C3.33 9 3.66 9 4 9 C4.33 11.31 4.66 13.62 5 16 C3.68 16 2.36 16 1 16 C0.67 10.72 0.34 5.44 0 0 Z " fill="#545091" transform="translate(150,259)"/>
<path d="M0 0 C4.75 0.75 4.75 0.75 7 3 C7.66 2.34 8.32 1.68 9 1 C9.33 2.32 9.66 3.64 10 5 C7.69 5.33 5.38 5.66 3 6 C3 5.01 3 4.02 3 3 C2.01 3 1.02 3 0 3 C0 2.01 0 1.02 0 0 Z " fill="#4D4888" transform="translate(100,256)"/>
<path d="M0 0 C3.88862987 1.26117725 5.89375599 2.45264167 8 6 C8 6.66 8 7.32 8 8 C4.54074837 6.7508258 1.85306797 5.32472205 -1 3 C-0.67 2.01 -0.34 1.02 0 0 Z " fill="#7F82A6" transform="translate(181,166)"/>
<path d="M0 0 C3.94949704 0.62816498 7.19892028 1.8645529 10.8125 3.5625 C12.27623047 4.24505859 12.27623047 4.24505859 13.76953125 4.94140625 C14.87361328 5.46541016 14.87361328 5.46541016 16 6 C16 6.33 16 6.66 16 7 C14.35 7 12.7 7 11 7 C11 6.34 11 5.68 11 5 C10.01 5 9.02 5 8 5 C7.67 5.66 7.34 6.32 7 7 C6.67 5.68 6.34 4.36 6 3 C3.03 2.505 3.03 2.505 0 2 C0 1.34 0 0.68 0 0 Z " fill="#8387B1" transform="translate(302,120)"/>
<path d="M0 0 C4.53062883 0.98163625 8.74327001 2.13768063 13 4 C13 4.33 13 4.66 13 5 C11.04082341 4.9131252 9.08258129 4.80495488 7.125 4.6875 C6.03445312 4.62949219 4.94390625 4.57148437 3.8203125 4.51171875 C2.88960937 4.34285156 1.95890625 4.17398438 1 4 C0.34 3.01 -0.32 2.02 -1 1 C-0.67 0.67 -0.34 0.34 0 0 Z " fill="#87CACD" transform="translate(160,97)"/>
<path d="M0 0 C3.875 0.875 3.875 0.875 5 2 C5.04080783 3.99958364 5.04254356 6.00045254 5 8 C3.68 8 2.36 8 1 8 C0.67 5.36 0.34 2.72 0 0 Z " fill="#59559A" transform="translate(343,268)"/>
<path d="M0 0 C2.23551759 3.35327639 2.17283528 3.90743657 1.625 7.6875 C1.51414062 8.49574219 1.40328125 9.30398438 1.2890625 10.13671875 C1.19367188 10.75160156 1.09828125 11.36648438 1 12 C-0.48828125 10.73046875 -0.48828125 10.73046875 -2 9 C-2.1875 5.3125 -2.1875 5.3125 -2 2 C-1.34 2 -0.68 2 0 2 C0 1.34 0 0.68 0 0 Z " fill="#65669D" transform="translate(113,264)"/>
<path d="M0 0 C2.97 0 5.94 0 9 0 C9 0.33 9 0.66 9 1 C7.35 1.33 5.7 1.66 4 2 C4 2.99 4 3.98 4 5 C2.5 7.1875 2.5 7.1875 1 9 C0.67 6.03 0.34 3.06 0 0 Z " fill="#8382AA" transform="translate(11,247)"/>
<path d="M0 0 C1.4540625 0.0309375 1.4540625 0.0309375 2.9375 0.0625 C2.6075 1.0525 2.2775 2.0425 1.9375 3.0625 C0.9475 3.0625 -0.0425 3.0625 -1.0625 3.0625 C-1.0625 4.7125 -1.0625 6.3625 -1.0625 8.0625 C-2.0525 7.7325 -3.0425 7.4025 -4.0625 7.0625 C-4.10504356 5.06295254 -4.10330783 3.06208364 -4.0625 1.0625 C-3.0625 0.0625 -3.0625 0.0625 0 0 Z " fill="#58C1C5" transform="translate(93.0625,159.9375)"/>
<path d="M0 0 C3.3 1.65 6.6 3.3 10 5 C8 7 8 7 5.375 7.125 C4.59125 7.08375 3.8075 7.0425 3 7 C3 6.01 3 5.02 3 4 C2.01 4 1.02 4 0 4 C0 2.68 0 1.36 0 0 Z " fill="#6F709F" transform="translate(190,153)"/>
<path d="M0 0 C1.32 0.33 2.64 0.66 4 1 C3.67 2.65 3.34 4.3 3 6 C1.02 6.66 -0.96 7.32 -3 8 C-1.125 2.25 -1.125 2.25 0 0 Z " fill="#6DA0B3" transform="translate(90,127)"/>
<path d="M0 0 C4 4.625 4 4.625 4 8 C1.03 8 -1.94 8 -5 8 C-4.360625 7.608125 -3.72125 7.21625 -3.0625 6.8125 C-0.56221181 4.61527704 -0.35049575 3.24208567 0 0 Z " fill="#807DA6" transform="translate(81,270)"/>
<path d="M0 0 C0.99 0.495 0.99 0.495 2 1 C2 1.99 2 2.98 2 4 C4.97 4.495 4.97 4.495 8 5 C8 5.66 8 6.32 8 7 C5.36 7 2.72 7 0 7 C0 4.69 0 2.38 0 0 Z " fill="#565284" transform="translate(362,271)"/>
<path d="M0 0 C0.33 1.32 0.66 2.64 1 4 C-1.64 4.33 -4.28 4.66 -7 5 C-7.33 4.01 -7.66 3.02 -8 2 C-5.36 1.34 -2.72 0.68 0 0 Z " fill="#8180AA" transform="translate(134,268)"/>
<path d="M0 0 C0.66 0.99 1.32 1.98 2 3 C5.08365871 3.2502157 5.08365871 3.2502157 8 3 C8.33 2.34 8.66 1.68 9 1 C9 2.32 9 3.64 9 5 C6.8125 6.1875 6.8125 6.1875 4 7 C1.1875 5.625 1.1875 5.625 -1 4 C-0.67 2.68 -0.34 1.36 0 0 Z " fill="#6C699F" transform="translate(126,260)"/>
<path d="M0 0 C1.62723299 0.45034123 3.25173664 0.91055354 4.875 1.375 C5.77992188 1.63023437 6.68484375 1.88546875 7.6171875 2.1484375 C10 3 10 3 12 5 C8.84979535 6.38609004 7.68081978 5.89180331 4.3125 4.75 C1 3 1 3 0 0 Z " fill="#8496B4" transform="translate(241,186)"/>
<path d="M0 0 C8.19256018 -0.63019694 8.19256018 -0.63019694 11.5625 2 C12.036875 2.66 12.51125 3.32 13 4 C12.01 4 11.02 4 10 4 C9.67 3.67 9.34 3.34 9 3 C5.54178598 2.74996036 5.54178598 2.74996036 2 3 C1.34 3.66 0.68 4.32 0 5 C0 3.35 0 1.7 0 0 Z " fill="#586C98" transform="translate(86,139)"/>
<path d="M0 0 C0.94875 0.04125 1.8975 0.0825 2.875 0.125 C2.215 1.775 1.555 3.425 0.875 5.125 C-1.435 4.795 -3.745 4.465 -6.125 4.125 C-4.4770995 0.82919899 -3.75401565 0.15016063 0 0 Z " fill="#5559A1" transform="translate(279.125,122.875)"/>
<path d="M0 0 C1.32 0 2.64 0 4 0 C3.01 2.97 2.02 5.94 1 9 C0.34 8.34 -0.32 7.68 -1 7 C-0.625 3.375 -0.625 3.375 0 0 Z " fill="#8484A8" transform="translate(31,264)"/>
<path d="M0 0 C2.31 0 4.62 0 7 0 C7 0.99 7 1.98 7 3 C3.535 4.485 3.535 4.485 0 6 C0 4.02 0 2.04 0 0 Z " fill="#4F4D8B" transform="translate(27,260)"/>
<path d="M0 0 C1.32 0.33 2.64 0.66 4 1 C4 2.65 4 4.3 4 6 C-0.75 5.125 -0.75 5.125 -3 4 C-3 3.34 -3 2.68 -3 2 C-2.01 2 -1.02 2 0 2 C0 1.34 0 0.68 0 0 Z " fill="#4E92B1" transform="translate(117,192)"/>
<path d="M0 0 C1.98 0.495 1.98 0.495 4 1 C4 3.31 4 5.62 4 8 C2.35 7.01 0.7 6.02 -1 5 C-0.67 3.35 -0.34 1.7 0 0 Z " fill="#4FC2C9" transform="translate(101,176)"/>
<path d="M0 0 C2.74855776 2.37375443 3.6829917 4.66357897 5 8 C5.66 8.33 6.32 8.66 7 9 C6.01 9.495 6.01 9.495 5 10 C4.01 9.67 3.02 9.34 2 9 C2 8.01 2 7.02 2 6 C1.34 6 0.68 6 0 6 C0 4.02 0 2.04 0 0 Z " fill="#7776A4" transform="translate(74,261)"/>
<path d="M0 0 C2.12508244 3.18762365 2.5020163 5.26512223 3 9 C1.68 9.33 0.36 9.66 -1 10 C-1.125 2.25 -1.125 2.25 0 0 Z " fill="#6D6CA0" transform="translate(362,251)"/>
<path d="M0 0 C6.13053511 -0.32712342 10.62669111 -0.39366878 16 3 C16 3.33 16 3.66 16 4 C13.69 4 11.38 4 9 4 C9 3.01 9 2.02 9 1 C6.03 1 3.06 1 0 1 C0 0.67 0 0.34 0 0 Z " fill="#9A98BB" transform="translate(126,246)"/>
<path d="M0 0 C4.95 1.98 4.95 1.98 10 4 C9.67 4.99 9.34 5.98 9 7 C5.56072421 5.7580393 2.74792181 4.44259716 0 2 C0 1.34 0 0.68 0 0 Z " fill="#84A8BF" transform="translate(113,195)"/>
<path d="M0 0 C2.1519437 3.22791555 2.20086443 4.28400809 2 8 C0.35 8 -1.3 8 -3 8 C-3 4.42424104 -1.91159393 2.94704065 0 0 Z " fill="#68A9BB" transform="translate(192,176)"/>
<path d="M0 0 C4.875 3.625 4.875 3.625 6 7 C5.01 7.33 4.02 7.66 3 8 C2.01 7.34 1.02 6.68 0 6 C-0.1875 2.875 -0.1875 2.875 0 0 Z " fill="#8180AB" transform="translate(326,134)"/>
<path d="M0 0 C0.99 0.33 1.98 0.66 3 1 C3 3.31 3 5.62 3 8 C2.01 7.67 1.02 7.34 0 7 C-0.38133299 5.0085944 -0.71325582 3.00720923 -1 1 C-0.67 0.67 -0.34 0.34 0 0 Z " fill="#6B64A7" transform="translate(282,270)"/>
<path d="M0 0 C1.5 1.25 1.5 1.25 3 3 C3 4.32 3 5.64 3 7 C1.68 7 0.36 7 -1 7 C-1 6.34 -1 5.68 -1 5 C-1.66 4.67 -2.32 4.34 -3 4 C-2.01 2.68 -1.02 1.36 0 0 Z " fill="#4F4D95" transform="translate(16,250)"/>
<path d="M0 0 C0 0.99 0 1.98 0 3 C0.66 3 1.32 3 2 3 C2 3.99 2 4.98 2 6 C-1.37503669 4.8141763 -3.64722731 3.72426311 -6 1 C-4 0 -4 0 0 0 Z " fill="#6FAFBF" transform="translate(111,189)"/>
<path d="M0 0 C-1 3 -1 3 -3.375 4.75 C-6 6 -6 6 -9 5 C-9 4.34 -9 3.68 -9 3 C-3.375 0 -3.375 0 0 0 Z " fill="#44517E" transform="translate(203,171)"/>
<path d="M0 0 C0.99 1.32 1.98 2.64 3 4 C1.68 5.65 0.36 7.3 -1 9 C-3 7 -3 7 -3.125 4.375 C-3.08375 3.59125 -3.0425 2.8075 -3 2 C-2.01 2.33 -1.02 2.66 0 3 C0 2.01 0 1.02 0 0 Z " fill="#79ACBB" transform="translate(209,134)"/>
<path d="M0 0 C0.33 0 0.66 0 1 0 C1.125 2.875 1.125 2.875 1 6 C0.34 6.66 -0.32 7.32 -1 8 C-2.32 7.34 -3.64 6.68 -5 6 C-5 4.35 -5 2.7 -5 1 C-4.01 1.33 -3.02 1.66 -2 2 C-2 2.99 -2 3.98 -2 5 C-1.34 5 -0.68 5 0 5 C0 3.35 0 1.7 0 0 Z " fill="#8886B9" transform="translate(223,266)"/>
<path d="M0 0 C0.33 0 0.66 0 1 0 C1 3.63 1 7.26 1 11 C0.01 10.67 -0.98 10.34 -2 10 C-2.25 3.375 -2.25 3.375 0 0 Z " fill="#5C5989" transform="translate(201,250)"/>
<path d="M0 0 C0.66 0.66 1.32 1.32 2 2 C1.8125 4 1.8125 4 1 6 C0.01 6.66 -0.98 7.32 -2 8 C-2.66 6.68 -3.32 5.36 -4 4 C-3.34 4 -2.68 4 -2 4 C-1.34 2.68 -0.68 1.36 0 0 Z " fill="#7A78A9" transform="translate(71,250)"/>
<path d="M0 0 C1.67542976 0.28604898 3.34385343 0.61781233 5 1 C0.25 5.875 0.25 5.875 -2 7 C-1.125 1.125 -1.125 1.125 0 0 Z " fill="#6D7EA6" transform="translate(249,163)"/>
<path d="M0 0 C0 1.98 0 3.96 0 6 C-0.66 6 -1.32 6 -2 6 C-2 5.01 -2 4.02 -2 3 C-3.65 2.67 -5.3 2.34 -7 2 C-6 0 -6 0 -4.0625 -0.6875 C-2 -1 -2 -1 0 0 Z " fill="#5D5B96" transform="translate(223,265)"/>
<path d="M0 0 C1.32 0 2.64 0 4 0 C3.67 1.65 3.34 3.3 3 5 C1.35 4.67 -0.3 4.34 -2 4 C-2 3.34 -2 2.68 -2 2 C-1.34 2 -0.68 2 0 2 C0 1.34 0 0.68 0 0 Z " fill="#676197" transform="translate(216,251)"/>
<path d="M0 0 C0 0.66 0 1.32 0 2 C-0.804375 2.12375 -1.60875 2.2475 -2.4375 2.375 C-3.7059375 2.684375 -3.7059375 2.684375 -5 3 C-5.33 3.66 -5.66 4.32 -6 5 C-7.65 5 -9.3 5 -11 5 C-7.17906575 1.05170128 -5.52310605 -0.1453449 0 0 Z " fill="#5591B2" transform="translate(105,142)"/>
<path d="M0 0 C0.99 0 1.98 0 3 0 C2.67 2.31 2.34 4.62 2 7 C0.68 6.67 -0.64 6.34 -2 6 C-1.34 4.02 -0.68 2.04 0 0 Z " fill="#487A97" transform="translate(105,134)"/>
<path d="M0 0 C2.97 0 5.94 0 9 0 C8.67 0.99 8.34 1.98 8 3 C5.125 3.1875 5.125 3.1875 2 3 C1.34 2.01 0.68 1.02 0 0 Z " fill="#45457F" transform="translate(206,271)"/>
<path d="M0 0 C1.65 0.33 3.3 0.66 5 1 C5 3 5 3 3.6875 4.625 C2 6 2 6 -1 6 C-0.67 4.02 -0.34 2.04 0 0 Z " fill="#615E9B" transform="translate(254,259)"/>
<path d="M0 0 C1.93742341 -0.02703381 3.87495479 -0.04641125 5.8125 -0.0625 C6.89144531 -0.07410156 7.97039062 -0.08570313 9.08203125 -0.09765625 C12 0 12 0 15 1 C14.67 1.99 14.34 2.98 14 4 C13.01 4 12.02 4 11 4 C11 3.01 11 2.02 11 1 C7.37 1 3.74 1 0 1 C0 0.67 0 0.34 0 0 Z " fill="#9492B9" transform="translate(284,246)"/>
<path d="M0 0 C3.375 -0.1875 3.375 -0.1875 7 0 C7.66 0.99 8.32 1.98 9 3 C6.36 3 3.72 3 1 3 C0.67 2.01 0.34 1.02 0 0 Z " fill="#4A4C75" transform="translate(147,209)"/>
<path d="M0 0 C3 1 3 1 4 3 C4.99 3.33 5.98 3.66 7 4 C7 4.99 7 5.98 7 7 C3.62496331 5.8141763 1.35277269 4.72426311 -1 2 C-0.67 1.34 -0.34 0.68 0 0 Z " fill="#7B98B6" transform="translate(231,203)"/>
<path d="M0 0 C-0.33 1.32 -0.66 2.64 -1 4 C-3.875 4.125 -3.875 4.125 -7 4 C-7.66 3.34 -8.32 2.68 -9 2 C-3.375 0 -3.375 0 0 0 Z " fill="#7D7EA4" transform="translate(293,187)"/>
<path d="M0 0 C0.66 0.33 1.32 0.66 2 1 C2.125 6.75 2.125 6.75 1 9 C0.34 9 -0.32 9 -1 9 C-1.09765625 2.84765625 -1.09765625 2.84765625 -1 1 C-0.67 0.67 -0.34 0.34 0 0 Z " fill="#8DAAAC" transform="translate(67,173)"/>
<path d="M0 0 C2.29013653 3.4352048 2.17842973 4.985331 2 9 C0.35 7.35 -1.3 5.7 -3 4 C-2.01 2.68 -1.02 1.36 0 0 Z " fill="#869DAC" transform="translate(214,142)"/>
<path d="M0 0 C1.98 0 3.96 0 6 0 C5.67 0.99 5.34 1.98 5 3 C3.02 3.33 1.04 3.66 -1 4 C-1.33 3.34 -1.66 2.68 -2 2 C-1.34 2 -0.68 2 0 2 C0 1.34 0 0.68 0 0 Z " fill="#565389" transform="translate(300,208)"/>
<path d="M0 0 C2.31 0 4.62 0 7 0 C7 0.99 7 1.98 7 3 C4.69 3.33 2.38 3.66 0 4 C0 2.68 0 1.36 0 0 Z " fill="#53549D" transform="translate(314,192)"/>
<path d="M0 0 C3.96 1.98 3.96 1.98 8 4 C8 4.33 8 4.66 8 5 C2.25 5.125 2.25 5.125 0 4 C0 2.68 0 1.36 0 0 Z " fill="#737299" transform="translate(200,159)"/>
<path d="M0 0 C-0.61875 0.0825 -1.2375 0.165 -1.875 0.25 C-4.18437567 0.81258459 -4.18437567 0.81258459 -5.25 3.0625 C-5.4975 3.701875 -5.745 4.34125 -6 5 C-6.99 4.67 -7.98 4.34 -9 4 C-9 3.01 -9 2.02 -9 1 C-6.04335481 -0.4783226 -3.25770263 -0.06032783 0 0 Z " fill="#7984AA" transform="translate(263,158)"/>
<path d="M0 0 C0.33 0 0.66 0 1 0 C1 3.63 1 7.26 1 11 C-0.32 10.67 -1.64 10.34 -3 10 C-2.01 6.7 -1.02 3.4 0 0 Z " fill="#8D8AA9" transform="translate(308,164)"/>
<path d="M0 0 C0.99 0.33 1.98 0.66 3 1 C2.34 2.98 1.68 4.96 1 7 C0.34 7 -0.32 7 -1 7 C-1.04254356 5.00045254 -1.04080783 2.99958364 -1 1 C-0.67 0.67 -0.34 0.34 0 0 Z " fill="#4F7AB3" transform="translate(235,169)"/>
<path d="M0 0 C3.465 1.485 3.465 1.485 7 3 C7 3.66 7 4.32 7 5 C4.69 4.67 2.38 4.34 0 4 C0 2.68 0 1.36 0 0 Z " fill="#7D85AD" transform="translate(173,144)"/>
<path d="M0 0 C2.475 0.99 2.475 0.99 5 2 C5 3.32 5 4.64 5 6 C3.125 5.75 3.125 5.75 1 5 C-0.25 2.9375 -0.25 2.9375 -1 1 C-0.67 0.67 -0.34 0.34 0 0 Z " fill="#5CA3AF" transform="translate(204,131)"/>
<path d="M0 0 C0.66 0.33 1.32 0.66 2 1 C2 1.99 2 2.98 2 4 C1.34 4 0.68 4 0 4 C-0.33 4.66 -0.66 5.32 -1 6 C-1.99 5.34 -2.98 4.68 -4 4 C-4 3.34 -4 2.68 -4 2 C-2.125 0.9375 -2.125 0.9375 0 0 Z " fill="#7B7AA7" transform="translate(297,183)"/>
<path d="M0 0 C1.65 0 3.3 0 5 0 C5 1.32 5 2.64 5 4 C3.35 4 1.7 4 0 4 C0 2.68 0 1.36 0 0 Z " fill="#50C1C7" transform="translate(106,164)"/>
<path d="M0 0 C5.75 -0.125 5.75 -0.125 8 1 C8 1.66 8 2.32 8 3 C2.25 3.125 2.25 3.125 0 2 C0 1.34 0 0.68 0 0 Z " fill="#67678F" transform="translate(296,146)"/>
<path d="M0 0 C2.475 0.495 2.475 0.495 5 1 C4.1875 2.9375 4.1875 2.9375 3 5 C2.01 5.33 1.02 5.66 0 6 C0 4.02 0 2.04 0 0 Z " fill="#53599F" transform="translate(273,144)"/>
<path d="M0 0 C0.99 0.33 1.98 0.66 3 1 C2.01 2.32 1.02 3.64 0 5 C-1.65 4.67 -3.3 4.34 -5 4 C-2.6875 1.9375 -2.6875 1.9375 0 0 Z " fill="#7B86B2" transform="translate(257,127)"/>
<path d="M0 0 C1.98 0 3.96 0 6 0 C5.67 1.32 5.34 2.64 5 4 C2.03 3.505 2.03 3.505 -1 3 C-0.67 2.01 -0.34 1.02 0 0 Z " fill="#79C3C7" transform="translate(170,111)"/>
<path d="M0 0 C2.475 0.495 2.475 0.495 5 1 C4.67 2.32 4.34 3.64 4 5 C2.68 4.67 1.36 4.34 0 4 C0 2.68 0 1.36 0 0 Z " fill="#5A589F" transform="translate(122,270)"/>
<path d="M0 0 C0 0.66 0 1.32 0 2 C0.66 2 1.32 2 2 2 C2 2.66 2 3.32 2 4 C-0.64 4 -3.28 4 -6 4 C-2.25 0 -2.25 0 0 0 Z " fill="#53C2C4" transform="translate(166,208)"/>
<path d="M0 0 C0 2.31 0 4.62 0 7 C-0.99 7 -1.98 7 -3 7 C-3 5.02 -3 3.04 -3 1 C-1 0 -1 0 0 0 Z " fill="#58AFB4" transform="translate(77,160)"/>
<path d="M0 0 C2.31 0 4.62 0 7 0 C6.34 1.32 5.68 2.64 5 4 C3.35 3.67 1.7 3.34 0 3 C0 2.01 0 1.02 0 0 Z " fill="#55639E" transform="translate(252,131)"/>
<path d="M0 0 C0.99 0 1.98 0 3 0 C3 1.98 3 3.96 3 6 C2.01 6 1.02 6 0 6 C0 4.02 0 2.04 0 0 Z " fill="#524F87" transform="translate(363,261)"/>
<path d="M0 0 C1.32 0.66 2.64 1.32 4 2 C3.01 3.485 3.01 3.485 2 5 C0.68 4.34 -0.64 3.68 -2 3 C-1.34 2.01 -0.68 1.02 0 0 Z " fill="#6E679D" transform="translate(74,255)"/>
<path d="M0 0 C1.98 0.99 3.96 1.98 6 3 C5.34 4.32 4.68 5.64 4 7 C4 6.01 4 5.02 4 4 C2.68 3.67 1.36 3.34 0 3 C0 2.01 0 1.02 0 0 Z " fill="#8E8BB5" transform="translate(216,247)"/>
<path d="M0 0 C0.66 0 1.32 0 2 0 C2 1.98 2 3.96 2 6 C1.01 6 0.02 6 -1 6 C-1.042721 4.33388095 -1.04063832 2.66617115 -1 1 C-0.67 0.67 -0.34 0.34 0 0 Z " fill="#F1F1F6" transform="translate(355,259)"/>
<path d="M0 0 C2.475 0.495 2.475 0.495 5 1 C4.67 2.65 4.34 4.3 4 6 C2 4.6875 2 4.6875 0 3 C0 2.01 0 1.02 0 0 Z " fill="#7D7BB0" transform="translate(352,253)"/>
<path d="M0 0 C1.65 0 3.3 0 5 0 C5 1.98 5 3.96 5 6 C3.31237149 4.3545622 1.6459651 2.68711423 0 1 C0 0.67 0 0.34 0 0 Z " fill="#817FAC" transform="translate(303,149)"/>
</svg>
